<svg width="128" height="128" viewBox="0 0 128 128" fill="none" xmlns="http://www.w3.org/2000/svg">
<path id="fill" fill="white" d="M61 12.5C66.9399 11.51 71.8998 16.4005 71.5134 21.8349C71.5058 21.9418 71.4599 22.0449 71.3888 22.125C59.9996 34.9599 59.019 45.7597 58.5131 65.4822C58.5059 65.7631 58.7316 66 59.0127 66H67.5C67.7761 66 67.9999 65.7796 68.001 65.5035C68.0376 56.6431 69.0823 43.2767 75.1824 33.4988C75.3462 33.2362 75.7108 33.1938 75.9368 33.4051C88.0949 44.7731 92.0692 56.2464 92.5 64C93 73 90.5 84 81 94C93 94 98 98 99 106V114C99 114.276 98.7761 114.5 98.5 114.5H27.5C27.2239 114.5 27 114.276 27 114V106C28 98 33 94 45 94C35.5 84 33 73 33.5 64C33.9964 55.0655 38.9274 42.1891 55.1415 27.8165C55.3401 27.6404 55.368 27.3336 55.2112 27.1194C50.1816 20.2483 55.1087 13.4819 61 12.5Z"/>
<path id="outline" stroke="white" stroke-width="4" d="M25.0154 105.752L25 105.876V106V114C25 115.381 26.1193 116.5 27.5 116.5H98.5C99.8807 116.5 101 115.381 101 114V106V105.876L100.985 105.752C100.454 101.51 98.8476 98.0069 95.5969 95.5951C93.0042 93.6715 89.5564 92.5877 85.2365 92.184C92.879 82.6158 94.9703 72.4106 94.4969 63.8891C94.0349 55.5735 89.801 43.6302 77.3027 31.9442C76.1862 30.9002 74.337 31.0753 73.4855 32.4401L75.1824 33.4988L73.4855 32.4401C67.4158 42.1694 66.1657 55.0969 66.0166 64H60.5535C60.8087 54.8737 61.2267 47.8942 62.8073 41.7165C64.4535 35.2823 67.3822 29.6535 72.8848 23.4525L71.3888 22.125L72.8848 23.4524C73.2281 23.0656 73.4674 22.5524 73.5083 21.9768C73.9849 15.2736 67.909 9.32089 60.6712 10.5272C57.118 11.1194 53.8584 13.44 52.2222 16.7053C50.6881 19.7668 50.6518 23.5159 52.8532 27.1822C37.1005 41.4774 32.0255 54.4855 31.5031 63.8891C31.0297 72.4106 33.121 82.6159 40.7635 92.184C36.4436 92.5877 32.9958 93.6715 30.4031 95.5951C27.1524 98.0069 25.5457 101.51 25.0154 105.752Z"/>
<path id="contour" stroke="black" stroke-width="2" d="M45 94C35.5 84 33 73 33.5 64C33.9964 55.0655 38.9274 42.1891 55.1415 27.8165C55.3401 27.6404 55.368 27.3336 55.2112 27.1194C50.1816 20.2483 55.1087 13.4819 61 12.5C66.9399 11.51 71.8998 16.4005 71.5134 21.8349C71.5058 21.9418 71.4599 22.0449 71.3888 22.125C59.9996 34.9599 59.019 45.7597 58.5131 65.4822C58.5059 65.7631 58.7316 66 59.0127 66H67.5C67.7761 66 67.9999 65.7796 68.001 65.5035C68.0376 56.6431 69.0823 43.2767 75.1824 33.4988C75.3462 33.2362 75.7108 33.1938 75.9368 33.4051C88.0949 44.7731 92.0692 56.2464 92.5 64C93 73 90.5 84 81 94M45 94C33 94 28 98 27 106V114C27 114.276 27.2239 114.5 27.5 114.5H98.5C98.7761 114.5 99 114.276 99 114V106C98 98 93 94 81 94M45 94C58.0697 93.3069 66.0312 93.4319 81 94"/>
</svg>
