<svg width="1026" height="1026" viewBox="0 0 1026 1026" fill="none" xmlns="http://www.w3.org/2000/svg">
<path d="M129 897L2.70713 1023.29C2.07716 1023.92 1.00002 1023.48 1.00002 1022.59V1013.21C1.00002 1012.94 1.10484 1012.69 1.29153 1012.5L114.643 898.706C115.271 898.075 114.825 897 113.935 897H104.804C104.539 897 104.284 897.106 104.096 897.294L2.7085 999.078C2.0791 999.71 1.00002 999.264 1.00002 998.372L1.00002 989.206C1.00002 988.941 1.10484 988.688 1.29154 988.5L90.7367 898.706C91.3647 898.075 90.9182 897 90.0282 897H80.8978C80.6319 897 80.377 897.106 80.1893 897.294L2.70851 975.078C2.07911 975.71 1.00002 975.264 1.00002 974.372L1.00002 965.206C1.00002 964.941 1.10485 964.688 1.29154 964.5L66.83 898.706C67.4581 898.075 67.0115 897 66.1215 897H56.9912C56.7253 897 56.4704 897.106 56.2827 897.294L2.70851 951.078C2.07911 951.71 1.00002 951.264 1.00002 950.372L1.00002 941.206C1.00002 940.941 1.10485 940.688 1.29154 940.5L42.9235 898.706C43.5515 898.075 43.105 897 42.215 897H33.0846C32.8187 897 32.5638 897.106 32.3762 897.294L2.70851 927.078C2.07911 927.71 1.00003 927.264 1.00003 926.372L1.00003 917.206C1.00003 916.941 1.10485 916.688 1.29154 916.5L19.0169 898.706C19.6449 898.075 19.1983 897 18.3084 897H9.17797C8.91208 897 8.65713 897.106 8.46948 897.294L2.70851 903.078C2.07911 903.71 1.00003 903.264 1.00003 902.372L1.00002 769M129 897V908.794C129 909.059 128.895 909.312 128.708 909.5L15.3568 1023.29C14.7287 1023.92 15.1753 1025 16.0652 1025H25.1956C25.4615 1025 25.7164 1024.89 25.9041 1024.71L127.292 922.922C127.921 922.29 129 922.736 129 923.628V932.794C129 933.059 128.895 933.312 128.708 933.5L39.2634 1023.29C38.6353 1023.92 39.0819 1025 39.9719 1025H49.1022C49.3681 1025 49.623 1024.89 49.8107 1024.71L127.292 946.922C127.921 946.29 129 946.736 129 947.628V956.794C129 957.059 128.895 957.312 128.708 957.5L63.1701 1023.29C62.542 1023.92 62.9886 1025 63.8785 1025H73.0088C73.2747 1025 73.5297 1024.89 73.7173 1024.71L127.292 970.922C127.921 970.29 129 970.736 129 971.628V980.794C129 981.059 128.895 981.312 128.708 981.5L87.0766 1023.29C86.4485 1023.92 86.8951 1025 87.7851 1025H96.9154C97.1813 1025 97.4362 1024.89 97.6239 1024.71L127.292 994.922C127.921 994.29 129 994.736 129 995.628V1004.79C129 1005.06 128.895 1005.31 128.708 1005.5L110.983 1023.29C110.355 1023.92 110.802 1025 111.692 1025H120.822C121.088 1025 121.343 1024.89 121.531 1024.71L127.292 1018.92C127.921 1018.29 129 1018.74 129 1019.63V1024C129 1024.55 129.448 1025 130 1025H257M129 897L257 769M129 897V885.206C129 884.941 129.105 884.688 129.292 884.5L242.643 770.706C243.271 770.075 242.825 769 241.935 769H232.804C232.539 769 232.284 769.106 232.096 769.294L130.708 871.078C130.079 871.71 129 871.264 129 870.372V861.206C129 860.941 129.105 860.688 129.292 860.5L218.737 770.706C219.365 770.075 218.918 769 218.028 769H208.898C208.632 769 208.377 769.106 208.189 769.294L130.708 847.078C130.079 847.71 129 847.264 129 846.372V837.206C129 836.941 129.105 836.688 129.292 836.5L194.83 770.706C195.458 770.075 195.011 769 194.122 769H184.991C184.725 769 184.47 769.106 184.283 769.294L130.708 823.078C130.079 823.71 129 823.264 129 822.372V813.206C129 812.941 129.105 812.688 129.292 812.5L170.923 770.706C171.552 770.075 171.105 769 170.215 769H161.085C160.819 769 160.564 769.106 160.376 769.294L130.709 799.078C130.079 799.71 129 799.264 129 798.372L129 789.206C129 788.941 129.105 788.688 129.292 788.5L147.017 770.706C147.645 770.075 147.198 769 146.308 769H137.178C136.912 769 136.657 769.106 136.469 769.294L130.709 775.078C130.079 775.71 129 775.264 129 774.372V769L129 763.628C129 762.736 127.921 762.29 127.292 762.922L121.531 768.706C121.343 768.894 121.088 769 120.822 769H111.692C110.802 769 110.355 767.925 110.983 767.294L128.708 749.5C128.895 749.312 129 749.059 129 748.794V739.628C129 738.736 127.921 738.29 127.292 738.922L97.6239 768.706C97.4362 768.894 97.1813 769 96.9154 769H87.7851C86.8951 769 86.4485 767.925 87.0766 767.294L128.708 725.5C128.895 725.312 129 725.059 129 724.794V715.628C129 714.736 127.921 714.29 127.292 714.922L73.7173 768.706C73.5297 768.894 73.2747 769 73.0088 769H63.8785C62.9886 769 62.542 767.925 63.1701 767.294L128.708 701.5C128.895 701.312 129 701.059 129 700.794V691.628C129 690.736 127.921 690.29 127.292 690.922L49.8107 768.706C49.623 768.894 49.3681 769 49.1022 769H39.9719C39.0819 769 38.6353 767.925 39.2634 767.294L128.708 677.5C128.895 677.312 129 677.059 129 676.794V667.628C129 666.736 127.921 666.29 127.292 666.922L25.9041 768.706C25.7164 768.894 25.4615 769 25.1956 769H16.0652C15.1753 769 14.7287 767.925 15.3568 767.294L128.708 653.5C128.895 653.312 129 653.059 129 652.794V641M1.00002 769L129 641M1.00002 769V757.206C1.00002 756.941 1.10484 756.688 1.29153 756.5L114.643 642.706C115.271 642.075 114.825 641 113.935 641H104.804C104.539 641 104.284 641.106 104.096 641.294L2.7085 743.078C2.0791 743.71 1.00002 743.264 1.00002 742.372L1.00002 733.206C1.00002 732.941 1.10484 732.688 1.29154 732.5L90.7367 642.706C91.3647 642.075 90.9182 641 90.0282 641H80.8978C80.6319 641 80.377 641.106 80.1893 641.294L2.70851 719.078C2.07911 719.71 1.00002 719.264 1.00002 718.372L1.00002 709.206C1.00002 708.941 1.10485 708.688 1.29154 708.5L66.83 642.706C67.4581 642.075 67.0115 641 66.1215 641H56.9912C56.7253 641 56.4704 641.106 56.2827 641.294L2.70851 695.078C2.07911 695.71 1.00002 695.264 1.00002 694.372L1.00002 685.206C1.00002 684.941 1.10485 684.688 1.29154 684.5L42.9235 642.706C43.5515 642.075 43.105 641 42.215 641H33.0846C32.8187 641 32.5638 641.106 32.3762 641.294L2.70851 671.078C2.07911 671.71 1.00003 671.264 1.00003 670.372L1.00003 661.206C1.00003 660.941 1.10485 660.688 1.29154 660.5L19.0169 642.706C19.6449 642.075 19.1983 641 18.3084 641H9.17797C8.91208 641 8.65713 641.106 8.46948 641.294L2.70851 647.078C2.07911 647.71 1.00003 647.264 1.00003 646.372L1 513M257 769V780.794C257 781.059 256.895 781.312 256.709 781.5L143.357 895.294C142.729 895.925 143.175 897 144.065 897H153.196C153.461 897 153.716 896.894 153.904 896.706L255.292 794.922C255.921 794.29 257 794.736 257 795.628V804.794C257 805.059 256.895 805.312 256.709 805.5L167.263 895.294C166.635 895.925 167.082 897 167.972 897H177.102C177.368 897 177.623 896.894 177.811 896.706L255.292 818.922C255.921 818.29 257 818.736 257 819.628V828.794C257 829.059 256.895 829.312 256.709 829.5L191.17 895.294C190.542 895.925 190.989 897 191.879 897H201.009C201.275 897 201.53 896.894 201.717 896.706L255.292 842.922C255.921 842.29 257 842.736 257 843.628V852.794C257 853.059 256.895 853.312 256.709 853.5L215.077 895.294C214.449 895.925 214.895 897 215.785 897H224.915C225.181 897 225.436 896.894 225.624 896.706L255.292 866.922C255.921 866.29 257 866.736 257 867.628V876.794C257 877.059 256.895 877.312 256.709 877.5L238.983 895.294C238.355 895.925 238.802 897 239.692 897H248.822C249.088 897 249.343 896.894 249.531 896.706L255.292 890.922C255.921 890.29 257 890.736 257 891.628V897V902.372C257 903.264 258.079 903.71 258.709 903.078L264.47 897.294C264.657 897.106 264.912 897 265.178 897H274.308C275.198 897 275.645 898.075 275.017 898.706L257.292 916.5C257.105 916.688 257 916.941 257 917.206V926.372C257 927.264 258.079 927.71 258.709 927.078L288.376 897.294C288.564 897.106 288.819 897 289.085 897H298.215C299.105 897 299.552 898.075 298.923 898.706L257.292 940.5C257.105 940.688 257 940.941 257 941.206V950.372C257 951.264 258.079 951.71 258.709 951.078L312.283 897.294C312.47 897.106 312.725 897 312.991 897H322.122C323.011 897 323.458 898.075 322.83 898.706L257.292 964.5C257.105 964.688 257 964.941 257 965.206V974.372C257 975.264 258.079 975.71 258.709 975.078L336.189 897.294C336.377 897.106 336.632 897 336.898 897H346.028C346.918 897 347.365 898.075 346.737 898.706L257.292 988.5C257.105 988.688 257 988.941 257 989.206V998.372C257 999.264 258.079 999.71 258.709 999.078L360.096 897.294C360.284 897.106 360.539 897 360.804 897H369.935C370.825 897 371.271 898.075 370.643 898.706L257.292 1012.5C257.105 1012.69 257 1012.94 257 1013.21V1025M257 769L385 641M257 769V757.206C257 756.941 257.105 756.688 257.292 756.5L370.643 642.706C371.271 642.075 370.825 641 369.935 641H360.804C360.539 641 360.284 641.106 360.096 641.294L258.709 743.078C258.079 743.71 257 743.264 257 742.372V733.206C257 732.941 257.105 732.688 257.292 732.5L346.737 642.706C347.365 642.075 346.918 641 346.028 641H336.898C336.632 641 336.377 641.106 336.189 641.294L258.709 719.078C258.079 719.71 257 719.264 257 718.372V709.206C257 708.941 257.105 708.688 257.292 708.5L322.83 642.706C323.458 642.075 323.011 641 322.122 641H312.991C312.725 641 312.47 641.106 312.283 641.294L258.709 695.078C258.079 695.71 257 695.264 257 694.372V685.206C257 684.941 257.105 684.688 257.292 684.5L298.923 642.706C299.552 642.075 299.105 641 298.215 641H289.085C288.819 641 288.564 641.106 288.376 641.294L258.709 671.078C258.079 671.71 257 671.264 257 670.372V661.206C257 660.941 257.105 660.688 257.292 660.5L275.017 642.706C275.645 642.075 275.198 641 274.308 641H265.178C264.912 641 264.657 641.106 264.47 641.294L258.709 647.078C258.079 647.71 257 647.264 257 646.372V641V635.628C257 634.736 255.921 634.29 255.292 634.922L249.531 640.706C249.343 640.894 249.088 641 248.822 641H239.692C238.802 641 238.355 639.925 238.983 639.294L256.709 621.5C256.895 621.312 257 621.059 257 620.794V611.628C257 610.736 255.921 610.29 255.292 610.922L225.624 640.706C225.436 640.894 225.181 641 224.915 641H215.785C214.895 641 214.449 639.925 215.077 639.294L256.709 597.5C256.895 597.312 257 597.059 257 596.794V587.628C257 586.736 255.921 586.29 255.292 586.922L201.717 640.706C201.53 640.894 201.275 641 201.009 641H191.879C190.989 641 190.542 639.925 191.17 639.294L256.709 573.5C256.895 573.312 257 573.059 257 572.794V563.628C257 562.736 255.921 562.29 255.292 562.922L177.811 640.706C177.623 640.894 177.368 641 177.102 641H167.972C167.082 641 166.635 639.925 167.263 639.294L256.709 549.5C256.895 549.312 257 549.059 257 548.794V539.628C257 538.736 255.921 538.29 255.292 538.922L153.904 640.706C153.716 640.894 153.461 641 153.196 641H144.065C143.175 641 142.729 639.925 143.357 639.294L256.709 525.5C256.895 525.312 257 525.059 257 524.794V513M385 641V652.794C385 653.059 384.895 653.312 384.709 653.5L271.357 767.294C270.729 767.925 271.175 769 272.065 769H281.196C281.461 769 281.716 768.894 281.904 768.706L383.292 666.922C383.921 666.29 385 666.736 385 667.628V676.794C385 677.059 384.895 677.312 384.709 677.5L295.263 767.294C294.635 767.925 295.082 769 295.972 769H305.102C305.368 769 305.623 768.894 305.811 768.706L383.292 690.922C383.921 690.29 385 690.736 385 691.628V700.794C385 701.059 384.895 701.312 384.709 701.5L319.17 767.294C318.542 767.925 318.989 769 319.879 769H329.009C329.275 769 329.53 768.894 329.717 768.706L383.292 714.922C383.921 714.29 385 714.736 385 715.628V724.794C385 725.059 384.895 725.312 384.709 725.5L343.077 767.294C342.449 767.925 342.895 769 343.785 769H352.915C353.181 769 353.436 768.894 353.624 768.706L383.292 738.922C383.921 738.29 385 738.736 385 739.628V748.794C385 749.059 384.895 749.312 384.709 749.5L366.983 767.294C366.355 767.925 366.802 769 367.692 769H376.822C377.088 769 377.343 768.894 377.531 768.706L383.292 762.922C383.921 762.29 385 762.736 385 763.628V769V774.372C385 775.264 386.079 775.71 386.709 775.078L392.47 769.294C392.657 769.106 392.912 769 393.178 769H402.308C403.198 769 403.645 770.075 403.017 770.706L385.292 788.5C385.105 788.688 385 788.941 385 789.206V798.372C385 799.264 386.079 799.71 386.709 799.078L416.376 769.294C416.564 769.106 416.819 769 417.085 769H426.215C427.105 769 427.552 770.075 426.923 770.706L385.292 812.5C385.105 812.688 385 812.941 385 813.206V822.372C385 823.264 386.079 823.71 386.709 823.078L440.283 769.294C440.47 769.106 440.725 769 440.991 769H450.122C451.011 769 451.458 770.075 450.83 770.706L385.292 836.5C385.105 836.688 385 836.941 385 837.206V846.372C385 847.264 386.079 847.71 386.709 847.078L464.189 769.294C464.377 769.106 464.632 769 464.898 769H474.028C474.918 769 475.365 770.075 474.737 770.706L385.292 860.5C385.105 860.688 385 860.941 385 861.206V870.372C385 871.264 386.079 871.71 386.709 871.078L488.096 769.294C488.284 769.106 488.539 769 488.804 769H497.935C498.825 769 499.271 770.075 498.643 770.706L385.292 884.5C385.105 884.688 385 884.941 385 885.206V897M385 641L513 513M385 641V629.206C385 628.941 385.105 628.688 385.292 628.5L498.643 514.706C499.271 514.075 498.825 513 497.935 513H488.804C488.539 513 488.284 513.106 488.096 513.294L386.709 615.078C386.079 615.71 385 615.264 385 614.372V605.206C385 604.941 385.105 604.688 385.292 604.5L474.737 514.706C475.365 514.075 474.918 513 474.028 513H464.898C464.632 513 464.377 513.106 464.189 513.294L386.709 591.078C386.079 591.71 385 591.264 385 590.372V581.206C385 580.941 385.105 580.688 385.292 580.5L450.83 514.706C451.458 514.075 451.011 513 450.122 513H440.991C440.725 513 440.47 513.106 440.283 513.294L386.709 567.078C386.079 567.71 385 567.264 385 566.372V557.206C385 556.941 385.105 556.688 385.292 556.5L426.923 514.706C427.552 514.075 427.105 513 426.215 513H417.085C416.819 513 416.564 513.106 416.376 513.294L386.709 543.078C386.079 543.71 385 543.264 385 542.372V533.206C385 532.941 385.105 532.688 385.292 532.5L403.017 514.706C403.645 514.075 403.198 513 402.308 513H393.178C392.912 513 392.657 513.106 392.47 513.294L386.709 519.078C386.079 519.71 385 519.264 385 518.372V513V507.628C385 506.736 383.921 506.29 383.292 506.922L377.531 512.706C377.343 512.894 377.088 513 376.822 513H367.692C366.802 513 366.355 511.925 366.983 511.294L384.709 493.5C384.895 493.312 385 493.059 385 492.794V483.628C385 482.736 383.921 482.29 383.292 482.922L353.624 512.706C353.436 512.894 353.181 513 352.915 513H343.785C342.895 513 342.449 511.925 343.077 511.294L384.709 469.5C384.895 469.312 385 469.059 385 468.794V459.628C385 458.736 383.921 458.29 383.292 458.922L329.717 512.706C329.53 512.894 329.275 513 329.009 513H319.879C318.989 513 318.542 511.925 319.17 511.294L384.709 445.5C384.895 445.312 385 445.059 385 444.794V435.628C385 434.736 383.921 434.29 383.292 434.922L305.811 512.706C305.623 512.894 305.368 513 305.102 513H295.972C295.082 513 294.635 511.925 295.263 511.294L384.709 421.5C384.895 421.312 385 421.059 385 420.794V411.628C385 410.736 383.921 410.29 383.292 410.922L281.904 512.706C281.716 512.894 281.461 513 281.196 513H272.065C271.175 513 270.729 511.925 271.357 511.294L384.709 397.5C384.895 397.312 385 397.059 385 396.794V385M513 513V524.794C513 525.059 512.895 525.312 512.708 525.5L399.357 639.294C398.729 639.925 399.175 641 400.065 641H409.196C409.461 641 409.716 640.894 409.904 640.706L511.292 538.922C511.921 538.29 513 538.736 513 539.628V548.794C513 549.059 512.895 549.312 512.708 549.5L423.263 639.294C422.635 639.925 423.082 641 423.972 641H433.102C433.368 641 433.623 640.894 433.811 640.706L511.292 562.922C511.921 562.29 513 562.736 513 563.628V572.794C513 573.059 512.895 573.312 512.708 573.5L447.17 639.294C446.542 639.925 446.989 641 447.879 641H457.009C457.275 641 457.53 640.894 457.717 640.706L511.292 586.922C511.921 586.29 513 586.736 513 587.628V596.794C513 597.059 512.895 597.312 512.708 597.5L471.077 639.294C470.449 639.925 470.895 641 471.785 641H480.915C481.181 641 481.436 640.894 481.624 640.706L511.292 610.922C511.921 610.29 513 610.736 513 611.628V620.794C513 621.059 512.895 621.312 512.708 621.5L494.983 639.294C494.355 639.925 494.802 641 495.692 641H504.822C505.088 641 505.343 640.894 505.531 640.706L511.292 634.922C511.921 634.29 513 634.736 513 635.628V641V646.372C513 647.264 514.079 647.71 514.708 647.078L520.469 641.294C520.657 641.106 520.912 641 521.178 641H530.308C531.198 641 531.645 642.075 531.017 642.706L513.292 660.5C513.105 660.688 513 660.941 513 661.206V670.372C513 671.264 514.079 671.71 514.708 671.078L544.376 641.294C544.564 641.106 544.819 641 545.085 641H554.215C555.105 641 555.552 642.075 554.923 642.706L513.292 684.5C513.105 684.688 513 684.941 513 685.206V694.372C513 695.264 514.079 695.71 514.708 695.078L568.283 641.294C568.47 641.106 568.725 641 568.991 641H578.121C579.011 641 579.458 642.075 578.83 642.706L513.292 708.5C513.105 708.688 513 708.941 513 709.206V718.372C513 719.264 514.079 719.71 514.708 719.078L592.189 641.294C592.377 641.106 592.632 641 592.898 641H602.028C602.918 641 603.365 642.075 602.737 642.706L513.292 732.5C513.105 732.688 513 732.941 513 733.206V742.372C513 743.264 514.079 743.71 514.708 743.078L616.096 641.294C616.284 641.106 616.539 641 616.804 641H625.935C626.825 641 627.271 642.075 626.643 642.706L513.292 756.5C513.105 756.688 513 756.941 513 757.206V769M513 513L641 385M513 513V501.206C513 500.941 513.105 500.688 513.292 500.5L626.643 386.706C627.271 386.075 626.825 385 625.935 385H616.804C616.539 385 616.284 385.106 616.096 385.294L514.708 487.078C514.079 487.71 513 487.264 513 486.372V477.206C513 476.941 513.105 476.688 513.292 476.5L602.737 386.706C603.365 386.075 602.918 385 602.028 385H592.898C592.632 385 592.377 385.106 592.189 385.294L514.708 463.078C514.079 463.71 513 463.264 513 462.372V453.206C513 452.941 513.105 452.688 513.292 452.5L578.83 386.706C579.458 386.075 579.011 385 578.121 385H568.991C568.725 385 568.47 385.106 568.283 385.294L514.708 439.078C514.079 439.71 513 439.264 513 438.372V429.206C513 428.941 513.105 428.688 513.292 428.5L554.923 386.706C555.552 386.075 555.105 385 554.215 385H545.085C544.819 385 544.564 385.106 544.376 385.294L514.708 415.078C514.079 415.71 513 415.264 513 414.372V405.206C513 404.941 513.105 404.688 513.292 404.5L531.017 386.706C531.645 386.075 531.198 385 530.308 385H521.178C520.912 385 520.657 385.106 520.469 385.294L514.708 391.078C514.079 391.71 513 391.264 513 390.372V385V379.628C513 378.736 511.921 378.29 511.292 378.922L505.531 384.706C505.343 384.894 505.088 385 504.822 385H495.692C494.802 385 494.355 383.925 494.983 383.294L512.708 365.5C512.895 365.312 513 365.059 513 364.794V355.628C513 354.736 511.921 354.29 511.292 354.922L481.624 384.706C481.436 384.894 481.181 385 480.915 385H471.785C470.895 385 470.449 383.925 471.077 383.294L512.708 341.5C512.895 341.312 513 341.059 513 340.794V331.628C513 330.736 511.921 330.29 511.292 330.922L457.717 384.706C457.53 384.894 457.275 385 457.009 385H447.879C446.989 385 446.542 383.925 447.17 383.294L512.708 317.5C512.895 317.312 513 317.059 513 316.794V307.628C513 306.736 511.921 306.29 511.292 306.922L433.811 384.706C433.623 384.894 433.368 385 433.102 385H423.972C423.082 385 422.635 383.925 423.263 383.294L512.708 293.5C512.895 293.312 513 293.059 513 292.794V283.628C513 282.736 511.921 282.29 511.292 282.922L409.904 384.706C409.716 384.894 409.461 385 409.196 385H400.065C399.175 385 398.729 383.925 399.357 383.294L512.708 269.5C512.895 269.312 513 269.059 513 268.794V257M897 129L1023.29 2.70711C1023.92 2.07714 1025 2.52331 1025 3.41421V12.794C1025 13.0586 1024.9 13.3123 1024.71 13.4997L911.357 127.294C910.729 127.925 911.175 129 912.065 129H921.196C921.461 129 921.716 128.894 921.904 128.706L973.305 77.1035L1023.29 26.9222C1023.92 26.2903 1025 26.7361 1025 27.6279V36.794C1025 37.0586 1024.9 37.3123 1024.71 37.4997L935.263 127.294C934.635 127.925 935.082 129 935.972 129H945.102C945.368 129 945.623 128.894 945.811 128.706L1023.29 50.9223C1023.92 50.2904 1025 50.7361 1025 51.628V60.7941C1025 61.0586 1024.9 61.3124 1024.71 61.4998L959.17 127.294C958.542 127.925 958.989 129 959.879 129H969.009C969.275 129 969.53 128.894 969.717 128.706L1023.29 74.9223C1023.92 74.2904 1025 74.7361 1025 75.628V84.794C1025 85.0586 1024.9 85.3123 1024.71 85.4997L983.077 127.294C982.448 127.925 982.895 129 983.785 129H992.915C993.181 129 993.436 128.894 993.624 128.706L1023.29 98.9222C1023.92 98.2903 1025 98.7361 1025 99.6279V108.794C1025 109.059 1024.9 109.312 1024.71 109.5L1006.98 127.294C1006.36 127.925 1006.8 129 1007.69 129H1016.82C1017.09 129 1017.34 128.894 1017.53 128.706L1023.29 122.922C1023.92 122.29 1025 122.736 1025 123.628V257M897 129V117.206C897 116.941 897.105 116.688 897.292 116.5L1010.64 2.70573C1011.27 2.0752 1010.82 1 1009.93 1H1000.8C1000.54 1 1000.28 1.1059 1000.1 1.29428L898.708 103.078C898.079 103.71 897 103.264 897 102.372V93.206C897 92.9414 897.105 92.6877 897.292 92.5003L986.737 2.70573C987.365 2.0752 986.918 1 986.028 1H976.898C976.632 1 976.377 1.10589 976.189 1.29427L898.708 79.0778C898.079 79.7096 897 79.2639 897 78.372V69.2059C897 68.9414 897.105 68.6876 897.292 68.5002L962.83 2.70573C963.458 2.0752 963.011 1 962.121 1H952.991C952.725 1 952.47 1.10589 952.283 1.29427L898.708 55.0778C898.079 55.7096 897 55.2639 897 54.372V45.206C897 44.9414 897.105 44.6877 897.292 44.5003L938.923 2.70573C939.552 2.0752 939.105 1 938.215 1H929.085C928.819 1 928.564 1.10589 928.376 1.29427L898.708 31.0778C898.079 31.7097 897 31.2639 897 30.3721V21.206C897 20.9414 897.105 20.6877 897.292 20.5003L915.017 2.70573C915.645 2.0752 915.198 1 914.308 1H905.178C904.912 1 904.657 1.10589 904.469 1.29427L898.708 7.07775C898.079 7.70961 897 7.26387 897 6.37202V2C897 1.44772 896.552 1 896 1H769M897 129L769 257M897 129V140.794C897 141.059 896.895 141.312 896.708 141.5L783.357 255.294C782.729 255.925 783.175 257 784.065 257H793.196C793.461 257 793.716 256.894 793.904 256.706L895.292 154.922C895.921 154.29 897 154.736 897 155.628V164.794C897 165.059 896.895 165.312 896.708 165.5L807.263 255.294C806.635 255.925 807.082 257 807.972 257H817.102C817.368 257 817.623 256.894 817.811 256.706L895.292 178.922C895.921 178.29 897 178.736 897 179.628V188.794C897 189.059 896.895 189.312 896.708 189.5L831.17 255.294C830.542 255.925 830.989 257 831.879 257H841.009C841.275 257 841.53 256.894 841.717 256.706L895.292 202.922C895.921 202.29 897 202.736 897 203.628V212.794C897 213.059 896.895 213.312 896.708 213.5L855.077 255.294C854.448 255.925 854.895 257 855.785 257H864.915C865.181 257 865.436 256.894 865.624 256.706L895.292 226.922C895.921 226.29 897 226.736 897 227.628V236.794C897 237.059 896.895 237.312 896.708 237.5L878.983 255.294C878.355 255.925 878.802 257 879.692 257H888.822C889.088 257 889.343 256.894 889.531 256.706L895.292 250.922C895.921 250.29 897 250.736 897 251.628V257V262.372C897 263.264 898.079 263.71 898.708 263.078L904.469 257.294C904.657 257.106 904.912 257 905.178 257H914.308C915.198 257 915.645 258.075 915.017 258.706L897.292 276.5C897.105 276.688 897 276.941 897 277.206V286.372C897 287.264 898.079 287.71 898.708 287.078L928.376 257.294C928.564 257.106 928.819 257 929.085 257H938.215C939.105 257 939.552 258.075 938.923 258.706L897.292 300.5C897.105 300.688 897 300.941 897 301.206V310.372C897 311.264 898.079 311.71 898.708 311.078L952.283 257.294C952.47 257.106 952.725 257 952.991 257H962.121C963.011 257 963.458 258.075 962.83 258.706L897.292 324.5C897.105 324.688 897 324.941 897 325.206V334.372C897 335.264 898.079 335.71 898.708 335.078L976.189 257.294C976.377 257.106 976.632 257 976.898 257H986.028C986.918 257 987.365 258.075 986.737 258.706L897.292 348.5C897.105 348.688 897 348.941 897 349.206V358.372C897 359.264 898.079 359.71 898.708 359.078L1000.1 257.294C1000.28 257.106 1000.54 257 1000.8 257H1009.93C1010.82 257 1011.27 258.075 1010.64 258.706L897.292 372.5C897.105 372.688 897 372.941 897 373.206V385M1025 257L897 385M1025 257V268.794C1025 269.059 1024.9 269.312 1024.71 269.5L911.357 383.294C910.729 383.925 911.175 385 912.065 385H921.196C921.461 385 921.716 384.894 921.904 384.706L1023.29 282.922C1023.92 282.29 1025 282.736 1025 283.628V292.794C1025 293.059 1024.9 293.312 1024.71 293.5L935.263 383.294C934.635 383.925 935.082 385 935.972 385H945.102C945.368 385 945.623 384.894 945.811 384.706L1023.29 306.922C1023.92 306.29 1025 306.736 1025 307.628V316.794C1025 317.059 1024.9 317.312 1024.71 317.5L959.17 383.294C958.542 383.925 958.989 385 959.879 385H969.009C969.275 385 969.53 384.894 969.717 384.706L1023.29 330.922C1023.92 330.29 1025 330.736 1025 331.628V340.794C1025 341.059 1024.9 341.312 1024.71 341.5L983.077 383.294C982.448 383.925 982.895 385 983.785 385H992.915C993.181 385 993.436 384.894 993.624 384.706L1023.29 354.922C1023.92 354.29 1025 354.736 1025 355.628V364.794C1025 365.059 1024.9 365.312 1024.71 365.5L1006.98 383.294C1006.36 383.925 1006.8 385 1007.69 385H1016.82C1017.09 385 1017.34 384.894 1017.53 384.706L1023.29 378.922C1023.92 378.29 1025 378.736 1025 379.628V513M769 257V245.206C769 244.941 769.105 244.688 769.292 244.5L882.643 130.706C883.271 130.075 882.825 129 881.935 129H872.804C872.539 129 872.284 129.106 872.096 129.294L770.708 231.078C770.079 231.71 769 231.264 769 230.372V221.206C769 220.941 769.105 220.688 769.292 220.5L858.737 130.706C859.365 130.075 858.918 129 858.028 129H848.898C848.632 129 848.377 129.106 848.189 129.294L770.708 207.078C770.079 207.71 769 207.264 769 206.372V197.206C769 196.941 769.105 196.688 769.292 196.5L834.83 130.706C835.458 130.075 835.011 129 834.121 129H824.991C824.725 129 824.47 129.106 824.283 129.294L770.708 183.078C770.079 183.71 769 183.264 769 182.372V173.206C769 172.941 769.105 172.688 769.292 172.5L810.923 130.706C811.552 130.075 811.105 129 810.215 129H801.085C800.819 129 800.564 129.106 800.376 129.294L770.708 159.078C770.079 159.71 769 159.264 769 158.372V149.206C769 148.941 769.105 148.688 769.292 148.5L787.017 130.706C787.645 130.075 787.198 129 786.308 129H777.178C776.912 129 776.657 129.106 776.469 129.294L770.708 135.078C770.079 135.71 769 135.264 769 134.372V129V123.628C769 122.736 767.921 122.29 767.292 122.922L761.531 128.706C761.343 128.894 761.088 129 760.822 129H751.692C750.802 129 750.355 127.925 750.983 127.294L768.708 109.5C768.895 109.312 769 109.059 769 108.794V99.6279C769 98.7361 767.921 98.2903 767.292 98.9222L737.624 128.706C737.436 128.894 737.181 129 736.915 129H727.785C726.895 129 726.448 127.925 727.077 127.294L768.708 85.4997C768.895 85.3123 769 85.0586 769 84.794V75.628C769 74.7361 767.921 74.2904 767.292 74.9223L713.717 128.706C713.53 128.894 713.275 129 713.009 129H703.879C702.989 129 702.542 127.925 703.17 127.294L768.708 61.4998C768.895 61.3124 769 61.0586 769 60.7941V51.628C769 50.7361 767.921 50.2904 767.292 50.9223L689.811 128.706C689.623 128.894 689.368 129 689.102 129H679.972C679.082 129 678.635 127.925 679.263 127.294L768.708 37.4997C768.895 37.3123 769 37.0586 769 36.794V27.6279C769 26.7361 767.921 26.2903 767.292 26.9222L665.904 128.706C665.716 128.894 665.461 129 665.196 129H656.065C655.175 129 654.729 127.925 655.357 127.294L768.708 13.4997C768.895 13.3123 769 13.0586 769 12.794V1M769 257L641 385M769 257V268.794C769 269.059 768.895 269.312 768.708 269.5L655.357 383.294C654.729 383.925 655.175 385 656.065 385H665.196C665.461 385 665.716 384.894 665.904 384.706L767.292 282.922C767.921 282.29 769 282.736 769 283.628V292.794C769 293.059 768.895 293.312 768.708 293.5L679.263 383.294C678.635 383.925 679.082 385 679.972 385H689.102C689.368 385 689.623 384.894 689.811 384.706L767.292 306.922C767.921 306.29 769 306.736 769 307.628V316.794C769 317.059 768.895 317.312 768.708 317.5L703.17 383.294C702.542 383.925 702.989 385 703.879 385H713.009C713.275 385 713.53 384.894 713.717 384.706L767.292 330.922C767.921 330.29 769 330.736 769 331.628V340.794C769 341.059 768.895 341.312 768.708 341.5L727.077 383.294C726.448 383.925 726.895 385 727.785 385H736.915C737.181 385 737.436 384.894 737.624 384.706L767.292 354.922C767.921 354.29 769 354.736 769 355.628V364.794C769 365.059 768.895 365.312 768.708 365.5L750.983 383.294C750.355 383.925 750.802 385 751.692 385H760.822C761.088 385 761.343 384.894 761.531 384.706L767.292 378.922C767.921 378.29 769 378.736 769 379.628V385V390.372C769 391.264 770.079 391.71 770.708 391.078L776.469 385.294C776.657 385.106 776.912 385 777.178 385H786.308C787.198 385 787.645 386.075 787.017 386.706L769.292 404.5C769.105 404.688 769 404.941 769 405.206V414.372C769 415.264 770.079 415.71 770.708 415.078L800.376 385.294C800.564 385.106 800.819 385 801.085 385H810.215C811.105 385 811.552 386.075 810.923 386.706L769.292 428.5C769.105 428.688 769 428.941 769 429.206V438.372C769 439.264 770.079 439.71 770.708 439.078L824.283 385.294C824.47 385.106 824.725 385 824.991 385H834.121C835.011 385 835.458 386.075 834.83 386.706L769.292 452.5C769.105 452.688 769 452.941 769 453.206V462.372C769 463.264 770.079 463.71 770.708 463.078L848.189 385.294C848.377 385.106 848.632 385 848.898 385H858.028C858.918 385 859.365 386.075 858.737 386.706L769.292 476.5C769.105 476.688 769 476.941 769 477.206V486.372C769 487.264 770.079 487.71 770.708 487.078L872.096 385.294C872.284 385.106 872.539 385 872.804 385H881.935C882.825 385 883.271 386.075 882.643 386.706L769.292 500.5C769.105 500.688 769 500.941 769 501.206V513M641 385V373.206C641 372.941 641.105 372.688 641.292 372.5L754.643 258.706C755.271 258.075 754.825 257 753.935 257H744.804C744.539 257 744.284 257.106 744.096 257.294L642.708 359.078C642.079 359.71 641 359.264 641 358.372V349.206C641 348.941 641.105 348.688 641.292 348.5L730.737 258.706C731.365 258.075 730.918 257 730.028 257H720.898C720.632 257 720.377 257.106 720.189 257.294L642.708 335.078C642.079 335.71 641 335.264 641 334.372V325.206C641 324.941 641.105 324.688 641.292 324.5L706.83 258.706C707.458 258.075 707.011 257 706.121 257H696.991C696.725 257 696.47 257.106 696.283 257.294L642.708 311.078C642.079 311.71 641 311.264 641 310.372V301.206C641 300.941 641.105 300.688 641.292 300.5L682.923 258.706C683.552 258.075 683.105 257 682.215 257H673.085C672.819 257 672.564 257.106 672.376 257.294L642.708 287.078C642.079 287.71 641 287.264 641 286.372V277.206C641 276.941 641.105 276.688 641.292 276.5L659.017 258.706C659.645 258.075 659.198 257 658.308 257H649.178C648.912 257 648.657 257.106 648.469 257.294L642.708 263.078C642.079 263.71 641 263.264 641 262.372V257V251.628C641 250.736 639.921 250.29 639.292 250.922L633.531 256.706C633.343 256.894 633.088 257 632.822 257H623.692C622.802 257 622.355 255.925 622.983 255.294L640.708 237.5C640.895 237.312 641 237.059 641 236.794V227.628C641 226.736 639.921 226.29 639.292 226.922L609.624 256.706C609.436 256.894 609.181 257 608.915 257H599.785C598.895 257 598.448 255.925 599.077 255.294L640.708 213.5C640.895 213.312 641 213.059 641 212.794V203.628C641 202.736 639.921 202.29 639.292 202.922L585.717 256.706C585.53 256.894 585.275 257 585.009 257H575.879C574.989 257 574.542 255.925 575.17 255.294L640.708 189.5C640.895 189.312 641 189.059 641 188.794V179.628C641 178.736 639.921 178.29 639.292 178.922L561.811 256.706C561.623 256.894 561.368 257 561.102 257H551.972C551.082 257 550.635 255.925 551.263 255.294L640.708 165.5C640.895 165.312 641 165.059 641 164.794V155.628C641 154.736 639.921 154.29 639.292 154.922L537.904 256.706C537.716 256.894 537.461 257 537.196 257H528.065C527.175 257 526.729 255.925 527.357 255.294L640.708 141.5C640.895 141.312 641 141.059 641 140.794V129M641 385V396.794C641 397.059 640.895 397.312 640.708 397.5L527.357 511.294C526.729 511.925 527.175 513 528.065 513H537.196C537.461 513 537.716 512.894 537.904 512.706L639.292 410.922C639.921 410.29 641 410.736 641 411.628V420.794C641 421.059 640.895 421.312 640.708 421.5L551.263 511.294C550.635 511.925 551.082 513 551.972 513H561.102C561.368 513 561.623 512.894 561.811 512.706L639.292 434.922C639.921 434.29 641 434.736 641 435.628V444.794C641 445.059 640.895 445.312 640.708 445.5L575.17 511.294C574.542 511.925 574.989 513 575.879 513H585.009C585.275 513 585.53 512.894 585.717 512.706L639.292 458.922C639.921 458.29 641 458.736 641 459.628V468.794C641 469.059 640.895 469.312 640.708 469.5L599.077 511.294C598.448 511.925 598.895 513 599.785 513H608.915C609.181 513 609.436 512.894 609.624 512.706L639.292 482.922C639.921 482.29 641 482.736 641 483.628V492.794C641 493.059 640.895 493.312 640.708 493.5L622.983 511.294C622.355 511.925 622.802 513 623.692 513H632.822C633.088 513 633.343 512.894 633.531 512.706L639.292 506.922C639.921 506.29 641 506.736 641 507.628V513V518.372C641 519.264 642.079 519.71 642.708 519.078L648.469 513.294C648.657 513.106 648.912 513 649.178 513H658.308C659.198 513 659.645 514.075 659.017 514.706L641.292 532.5C641.105 532.688 641 532.941 641 533.206V542.372C641 543.264 642.079 543.71 642.708 543.078L672.376 513.294C672.564 513.106 672.819 513 673.085 513H682.215C683.105 513 683.552 514.075 682.923 514.706L641.292 556.5C641.105 556.688 641 556.941 641 557.206V566.372C641 567.264 642.079 567.71 642.708 567.078L696.283 513.294C696.47 513.106 696.725 513 696.991 513H706.121C707.011 513 707.458 514.075 706.83 514.706L641.292 580.5C641.105 580.688 641 580.941 641 581.206V590.372C641 591.264 642.079 591.71 642.708 591.078L720.189 513.294C720.377 513.106 720.632 513 720.898 513H730.028C730.918 513 731.365 514.075 730.737 514.706L641.292 604.5C641.105 604.688 641 604.941 641 605.206V614.372C641 615.264 642.079 615.71 642.708 615.078L744.096 513.294C744.284 513.106 744.539 513 744.804 513H753.935C754.825 513 755.271 514.075 754.643 514.706L641.292 628.5C641.105 628.688 641 628.941 641 629.206V641M129 641L257 513M129 641V629.206C129 628.941 129.105 628.688 129.292 628.5L242.643 514.706C243.271 514.075 242.825 513 241.935 513H232.804C232.539 513 232.284 513.106 232.096 513.294L130.708 615.078C130.079 615.71 129 615.264 129 614.372V605.206C129 604.941 129.105 604.688 129.292 604.5L218.737 514.706C219.365 514.075 218.918 513 218.028 513H208.898C208.632 513 208.377 513.106 208.189 513.294L130.708 591.078C130.079 591.71 129 591.264 129 590.372V581.206C129 580.941 129.105 580.688 129.292 580.5L194.83 514.706C195.458 514.075 195.011 513 194.122 513H184.991C184.725 513 184.47 513.106 184.283 513.294L130.708 567.078C130.079 567.71 129 567.264 129 566.372V557.206C129 556.941 129.105 556.688 129.292 556.5L170.923 514.706C171.552 514.075 171.105 513 170.215 513H161.085C160.819 513 160.564 513.106 160.376 513.294L130.709 543.078C130.079 543.71 129 543.264 129 542.372L129 533.206C129 532.941 129.105 532.688 129.292 532.5L147.017 514.706C147.645 514.075 147.198 513 146.308 513H137.178C136.912 513 136.657 513.106 136.469 513.294L130.709 519.078C130.079 519.71 129 519.264 129 518.372V513L129 507.628C129 506.736 127.921 506.29 127.292 506.922L121.531 512.706C121.343 512.894 121.088 513 120.822 513H111.692C110.802 513 110.355 511.925 110.983 511.294L128.708 493.5C128.895 493.312 129 493.059 129 492.794V483.628C129 482.736 127.921 482.29 127.292 482.922L97.6239 512.706C97.4362 512.894 97.1813 513 96.9154 513H87.7851C86.8951 513 86.4485 511.925 87.0766 511.294L128.708 469.5C128.895 469.312 129 469.059 129 468.794V459.628C129 458.736 127.921 458.29 127.292 458.922L73.7173 512.706C73.5297 512.894 73.2747 513 73.0088 513H63.8785C62.9886 513 62.542 511.925 63.1701 511.294L128.708 445.5C128.895 445.312 129 445.059 129 444.794V435.628C129 434.736 127.921 434.29 127.292 434.922L49.8107 512.706C49.623 512.894 49.3681 513 49.1022 513H39.9719C39.0819 513 38.6353 511.925 39.2634 511.294L128.708 421.5C128.895 421.312 129 421.059 129 420.794V411.628C129 410.736 127.921 410.29 127.292 410.922L25.9041 512.706C25.7164 512.894 25.4615 513 25.1956 513H16.0652C15.1753 513 14.7287 511.925 15.3568 511.294L128.708 397.5C128.895 397.312 129 397.059 129 396.794V385M1 513L129 385M1 513L1.00002 501.206C1.00002 500.941 1.10484 500.688 1.29153 500.5L114.643 386.706C115.271 386.075 114.825 385 113.935 385H104.804C104.539 385 104.284 385.106 104.096 385.294L2.7085 487.078C2.0791 487.71 1.00002 487.264 1.00002 486.372L1.00002 477.206C1.00002 476.941 1.10484 476.688 1.29154 476.5L90.7367 386.706C91.3647 386.075 90.9182 385 90.0282 385H80.8978C80.6319 385 80.377 385.106 80.1893 385.294L2.70851 463.078C2.07911 463.71 1.00002 463.264 1.00002 462.372L1.00002 453.206C1.00002 452.941 1.10485 452.688 1.29154 452.5L66.83 386.706C67.4581 386.075 67.0115 385 66.1215 385H56.9912C56.7253 385 56.4704 385.106 56.2827 385.294L2.70851 439.078C2.07911 439.71 1.00002 439.264 1.00002 438.372L1.00002 429.206C1.00002 428.941 1.10485 428.688 1.29154 428.5L42.9235 386.706C43.5515 386.075 43.105 385 42.215 385H33.0846C32.8187 385 32.5638 385.106 32.3762 385.294L2.70851 415.078C2.07911 415.71 1.00003 415.264 1.00003 414.372L1.00003 405.206C1.00003 404.941 1.10485 404.688 1.29154 404.5L19.0169 386.706C19.6449 386.075 19.1983 385 18.3084 385H9.17797C8.91208 385 8.65713 385.106 8.46948 385.294L2.70851 391.078C2.07911 391.71 1.00003 391.264 1.00003 390.372L1.00002 257M257 513L385 385M257 513V501.206C257 500.941 257.105 500.688 257.292 500.5L370.643 386.706C371.271 386.075 370.825 385 369.935 385H360.804C360.539 385 360.284 385.106 360.096 385.294L258.709 487.078C258.079 487.71 257 487.264 257 486.372V477.206C257 476.941 257.105 476.688 257.292 476.5L346.737 386.706C347.365 386.075 346.918 385 346.028 385H336.898C336.632 385 336.377 385.106 336.189 385.294L258.709 463.078C258.079 463.71 257 463.264 257 462.372V453.206C257 452.941 257.105 452.688 257.292 452.5L322.83 386.706C323.458 386.075 323.011 385 322.122 385H312.991C312.725 385 312.47 385.106 312.283 385.294L258.709 439.078C258.079 439.71 257 439.264 257 438.372V429.206C257 428.941 257.105 428.688 257.292 428.5L298.923 386.706C299.552 386.075 299.105 385 298.215 385H289.085C288.819 385 288.564 385.106 288.376 385.294L258.709 415.078C258.079 415.71 257 415.264 257 414.372V405.206C257 404.941 257.105 404.688 257.292 404.5L275.017 386.706C275.645 386.075 275.198 385 274.308 385H265.178C264.912 385 264.657 385.106 264.47 385.294L258.709 391.078C258.079 391.71 257 391.264 257 390.372V385V379.628C257 378.736 255.921 378.29 255.292 378.922L249.531 384.706C249.343 384.894 249.088 385 248.822 385H239.692C238.802 385 238.355 383.925 238.983 383.294L256.709 365.5C256.895 365.312 257 365.059 257 364.794V355.628C257 354.736 255.921 354.29 255.292 354.922L225.624 384.706C225.436 384.894 225.181 385 224.915 385H215.785C214.895 385 214.449 383.925 215.077 383.294L256.709 341.5C256.895 341.312 257 341.059 257 340.794V331.628C257 330.736 255.921 330.29 255.292 330.922L201.717 384.706C201.53 384.894 201.275 385 201.009 385H191.879C190.989 385 190.542 383.925 191.17 383.294L256.709 317.5C256.895 317.312 257 317.059 257 316.794V307.628C257 306.736 255.921 306.29 255.292 306.922L177.811 384.706C177.623 384.894 177.368 385 177.102 385H167.972C167.082 385 166.635 383.925 167.263 383.294L256.709 293.5C256.895 293.312 257 293.059 257 292.794V283.628C257 282.736 255.921 282.29 255.292 282.922L153.904 384.706C153.716 384.894 153.461 385 153.196 385H144.065C143.175 385 142.729 383.925 143.357 383.294L256.709 269.5C256.895 269.312 257 269.059 257 268.794V257M385 385L513 257M385 385V373.206C385 372.941 385.105 372.688 385.292 372.5L498.643 258.706C499.271 258.075 498.825 257 497.935 257H488.804C488.539 257 488.284 257.106 488.096 257.294L386.709 359.078C386.079 359.71 385 359.264 385 358.372V349.206C385 348.941 385.105 348.688 385.292 348.5L474.737 258.706C475.365 258.075 474.918 257 474.028 257H464.898C464.632 257 464.377 257.106 464.189 257.294L386.709 335.078C386.079 335.71 385 335.264 385 334.372V325.206C385 324.941 385.105 324.688 385.292 324.5L450.83 258.706C451.458 258.075 451.011 257 450.122 257H440.991C440.725 257 440.47 257.106 440.283 257.294L386.709 311.078C386.079 311.71 385 311.264 385 310.372V301.206C385 300.941 385.105 300.688 385.292 300.5L426.923 258.706C427.552 258.075 427.105 257 426.215 257H417.085C416.819 257 416.564 257.106 416.376 257.294L386.709 287.078C386.079 287.71 385 287.264 385 286.372V277.206C385 276.941 385.105 276.688 385.292 276.5L403.017 258.706C403.645 258.075 403.198 257 402.308 257H393.178C392.912 257 392.657 257.106 392.47 257.294L386.709 263.078C386.079 263.71 385 263.264 385 262.372V257V251.628C385 250.736 383.921 250.29 383.292 250.922L377.531 256.706C377.343 256.894 377.088 257 376.822 257H367.692C366.802 257 366.355 255.925 366.983 255.294L384.709 237.5C384.895 237.312 385 237.059 385 236.794V227.628C385 226.736 383.921 226.29 383.292 226.922L353.624 256.706C353.436 256.894 353.181 257 352.915 257H343.785C342.895 257 342.449 255.925 343.077 255.294L384.709 213.5C384.895 213.312 385 213.059 385 212.794V203.628C385 202.736 383.921 202.29 383.292 202.922L329.717 256.706C329.53 256.894 329.275 257 329.009 257H319.879C318.989 257 318.542 255.925 319.17 255.294L384.709 189.5C384.895 189.312 385 189.059 385 188.794V179.628C385 178.736 383.921 178.29 383.292 178.922L305.811 256.706C305.623 256.894 305.368 257 305.102 257H295.972C295.082 257 294.635 255.925 295.263 255.294L384.709 165.5C384.895 165.312 385 165.059 385 164.794V155.628C385 154.736 383.921 154.29 383.292 154.922L281.904 256.706C281.716 256.894 281.461 257 281.196 257H272.065C271.175 257 270.729 255.925 271.357 255.294L384.709 141.5C384.895 141.312 385 141.059 385 140.794V129M641 129L769 1M641 129V117.206C641 116.941 641.105 116.688 641.292 116.5L754.643 2.70573C755.271 2.0752 754.825 1 753.935 1H744.804C744.539 1 744.284 1.1059 744.096 1.29428L642.708 103.078C642.079 103.71 641 103.264 641 102.372V93.206C641 92.9414 641.105 92.6877 641.292 92.5003L730.737 2.70573C731.365 2.0752 730.918 1 730.028 1H720.898C720.632 1 720.377 1.10589 720.189 1.29427L642.708 79.0778C642.079 79.7096 641 79.2639 641 78.372V69.2059C641 68.9414 641.105 68.6876 641.292 68.5002L706.83 2.70573C707.458 2.0752 707.011 1 706.121 1H696.991C696.725 1 696.47 1.10589 696.283 1.29427L642.708 55.0778C642.079 55.7096 641 55.2639 641 54.372V45.206C641 44.9414 641.105 44.6877 641.292 44.5003L682.923 2.70573C683.552 2.0752 683.105 1 682.215 1H673.085C672.819 1 672.564 1.10589 672.376 1.29427L642.708 31.0778C642.079 31.7097 641 31.2639 641 30.3721V21.206C641 20.9414 641.105 20.6877 641.292 20.5003L659.017 2.70573C659.645 2.0752 659.198 1 658.308 1H649.178C648.912 1 648.657 1.10589 648.469 1.29427L642.708 7.07775C642.079 7.70961 641 7.26387 641 6.37202V2C641 1.44772 640.552 1 640 1H513M641 129L513 257M513 257V245.206C513 244.941 513.105 244.688 513.292 244.5L626.643 130.706C627.271 130.075 626.825 129 625.935 129H616.804C616.539 129 616.284 129.106 616.096 129.294L514.708 231.078C514.079 231.71 513 231.264 513 230.372V221.206C513 220.941 513.105 220.688 513.292 220.5L602.737 130.706C603.365 130.075 602.918 129 602.028 129H592.898C592.632 129 592.377 129.106 592.189 129.294L514.708 207.078C514.079 207.71 513 207.264 513 206.372V197.206C513 196.941 513.105 196.688 513.292 196.5L578.83 130.706C579.458 130.075 579.011 129 578.121 129H568.991C568.725 129 568.47 129.106 568.283 129.294L514.708 183.078C514.079 183.71 513 183.264 513 182.372V173.206C513 172.941 513.105 172.688 513.292 172.5L554.923 130.706C555.552 130.075 555.105 129 554.215 129H545.085C544.819 129 544.564 129.106 544.376 129.294L514.708 159.078C514.079 159.71 513 159.264 513 158.372V149.206C513 148.941 513.105 148.688 513.292 148.5L531.017 130.706C531.645 130.075 531.198 129 530.308 129H521.178C520.912 129 520.657 129.106 520.469 129.294L514.708 135.078C514.079 135.71 513 135.264 513 134.372V129V123.628C513 122.736 511.921 122.29 511.292 122.922L505.531 128.706C505.343 128.894 505.088 129 504.822 129H495.692C494.802 129 494.355 127.925 494.983 127.294L512.708 109.5C512.895 109.312 513 109.059 513 108.794V99.6279C513 98.7361 511.921 98.2903 511.292 98.9222L481.624 128.706C481.436 128.894 481.181 129 480.915 129H471.785C470.895 129 470.449 127.925 471.077 127.294L512.708 85.4997C512.895 85.3123 513 85.0586 513 84.794V75.628C513 74.7361 511.921 74.2904 511.292 74.9223L457.717 128.706C457.53 128.894 457.275 129 457.009 129H447.879C446.989 129 446.542 127.925 447.17 127.294L512.708 61.4998C512.895 61.3124 513 61.0586 513 60.7941V51.628C513 50.7361 511.921 50.2904 511.292 50.9223L433.811 128.706C433.623 128.894 433.368 129 433.102 129H423.972C423.082 129 422.635 127.925 423.263 127.294L512.708 37.4997C512.895 37.3123 513 37.0586 513 36.794V27.6279C513 26.7361 511.921 26.2903 511.292 26.9222L409.904 128.706C409.716 128.894 409.461 129 409.196 129H400.065C399.175 129 398.729 127.925 399.357 127.294L512.708 13.4997C512.895 13.3123 513 13.0586 513 12.794V1M129 385L257 257M129 385V373.206C129 372.941 129.105 372.688 129.292 372.5L242.643 258.706C243.271 258.075 242.825 257 241.935 257H232.804C232.539 257 232.284 257.106 232.096 257.294L130.708 359.078C130.079 359.71 129 359.264 129 358.372V349.206C129 348.941 129.105 348.688 129.292 348.5L218.737 258.706C219.365 258.075 218.918 257 218.028 257H208.898C208.632 257 208.377 257.106 208.189 257.294L130.708 335.078C130.079 335.71 129 335.264 129 334.372V325.206C129 324.941 129.105 324.688 129.292 324.5L194.83 258.706C195.458 258.075 195.011 257 194.122 257H184.991C184.725 257 184.47 257.106 184.283 257.294L130.708 311.078C130.079 311.71 129 311.264 129 310.372V301.206C129 300.941 129.105 300.688 129.292 300.5L170.923 258.706C171.552 258.075 171.105 257 170.215 257H161.085C160.819 257 160.564 257.106 160.376 257.294L130.709 287.078C130.079 287.71 129 287.264 129 286.372L129 277.206C129 276.941 129.105 276.688 129.292 276.5L147.017 258.706C147.645 258.075 147.198 257 146.308 257H137.178C136.912 257 136.657 257.106 136.469 257.294L130.709 263.078C130.079 263.71 129 263.264 129 262.372V257L129 251.628C129 250.736 127.921 250.29 127.292 250.922L121.531 256.706C121.343 256.894 121.088 257 120.822 257H111.692C110.802 257 110.355 255.925 110.983 255.294L128.708 237.5C128.895 237.312 129 237.059 129 236.794V227.628C129 226.736 127.921 226.29 127.292 226.922L97.6239 256.706C97.4362 256.894 97.1813 257 96.9154 257H87.7851C86.8951 257 86.4485 255.925 87.0766 255.294L128.708 213.5C128.895 213.312 129 213.059 129 212.794V203.628C129 202.736 127.921 202.29 127.292 202.922L73.7173 256.706C73.5297 256.894 73.2747 257 73.0088 257H63.8785C62.9886 257 62.542 255.925 63.1701 255.294L128.708 189.5C128.895 189.312 129 189.059 129 188.794V179.628C129 178.736 127.921 178.29 127.292 178.922L49.8107 256.706C49.623 256.894 49.3681 257 49.1022 257H39.9719C39.0819 257 38.6353 255.925 39.2634 255.294L128.708 165.5C128.895 165.312 129 165.059 129 164.794V155.628C129 154.736 127.921 154.29 127.292 154.922L25.9041 256.706C25.7164 256.894 25.4615 257 25.1956 257H16.0652C15.1753 257 14.7287 255.925 15.3568 255.294L128.708 141.5C128.895 141.312 129 141.059 129 140.794V129M1.00002 257L129 129M1.00002 257V245.206C1.00002 244.941 1.10484 244.688 1.29153 244.5L114.643 130.706C115.271 130.075 114.825 129 113.935 129H104.804C104.539 129 104.284 129.106 104.096 129.294L2.7085 231.078C2.0791 231.71 1.00002 231.264 1.00002 230.372L1.00002 221.206C1.00002 220.941 1.10484 220.688 1.29154 220.5L90.7367 130.706C91.3647 130.075 90.9182 129 90.0282 129H80.8978C80.6319 129 80.377 129.106 80.1893 129.294L2.70851 207.078C2.07911 207.71 1.00002 207.264 1.00002 206.372L1.00002 197.206C1.00002 196.941 1.10485 196.688 1.29154 196.5L66.83 130.706C67.4581 130.075 67.0115 129 66.1215 129H56.9912C56.7253 129 56.4704 129.106 56.2827 129.294L2.70851 183.078C2.07911 183.71 1.00002 183.264 1.00002 182.372L1.00002 173.206C1.00002 172.941 1.10485 172.688 1.29154 172.5L42.9235 130.706C43.5515 130.075 43.105 129 42.215 129H33.0846C32.8187 129 32.5638 129.106 32.3762 129.294L2.70851 159.078C2.07911 159.71 1.00003 159.264 1.00003 158.372L1.00003 149.206C1.00003 148.941 1.10485 148.688 1.29154 148.5L19.0169 130.706C19.6449 130.075 19.1983 129 18.3084 129H9.17797C8.91208 129 8.65713 129.106 8.46948 129.294L2.70851 135.078C2.07911 135.71 1.00003 135.264 1.00003 134.372V2C1.00003 1.44772 1.44774 1 2.00003 1H128C128.552 1 129 1.44772 129 2V6.37202C129 7.26387 130.079 7.70961 130.709 7.07775L136.469 1.29427C136.657 1.10589 136.912 1 137.178 1H146.308C147.198 1 147.645 2.0752 147.017 2.70573L129.292 20.5003C129.105 20.6877 129 20.9414 129 21.206L129 30.3721C129 31.2639 130.079 31.7097 130.709 31.0778L160.376 1.29427C160.564 1.10589 160.819 1 161.085 1H170.215C171.105 1 171.552 2.0752 170.923 2.70573L129.292 44.5003C129.105 44.6877 129 44.9414 129 45.206V54.372C129 55.2639 130.079 55.7096 130.708 55.0778L184.283 1.29427C184.47 1.10589 184.725 1 184.991 1H194.122C195.011 1 195.458 2.0752 194.83 2.70573L129.292 68.5002C129.105 68.6876 129 68.9414 129 69.2059V78.372C129 79.2639 130.079 79.7096 130.708 79.0778L208.189 1.29427C208.377 1.10589 208.632 1 208.898 1H218.028C218.918 1 219.365 2.0752 218.737 2.70573L129.292 92.5003C129.105 92.6877 129 92.9414 129 93.206V102.372C129 103.264 130.079 103.71 130.708 103.078L232.096 1.29428C232.284 1.1059 232.539 1 232.804 1H241.935C242.825 1 243.271 2.0752 242.643 2.70573L129.292 116.5C129.105 116.688 129 116.941 129 117.206V129M257 257L385 129M257 257V245.206C257 244.941 257.105 244.688 257.292 244.5L370.643 130.706C371.271 130.075 370.825 129 369.935 129H360.804C360.539 129 360.284 129.106 360.096 129.294L258.709 231.078C258.079 231.71 257 231.264 257 230.372V221.206C257 220.941 257.105 220.688 257.292 220.5L346.737 130.706C347.365 130.075 346.918 129 346.028 129H336.898C336.632 129 336.377 129.106 336.189 129.294L258.709 207.078C258.079 207.71 257 207.264 257 206.372V197.206C257 196.941 257.105 196.688 257.292 196.5L322.83 130.706C323.458 130.075 323.011 129 322.122 129H312.991C312.725 129 312.47 129.106 312.283 129.294L258.709 183.078C258.079 183.71 257 183.264 257 182.372V173.206C257 172.941 257.105 172.688 257.292 172.5L298.923 130.706C299.552 130.075 299.105 129 298.215 129H289.085C288.819 129 288.564 129.106 288.376 129.294L258.709 159.078C258.079 159.71 257 159.264 257 158.372V149.206C257 148.941 257.105 148.688 257.292 148.5L275.017 130.706C275.645 130.075 275.198 129 274.308 129H265.178C264.912 129 264.657 129.106 264.47 129.294L258.709 135.078C258.079 135.71 257 135.264 257 134.372V129V123.628C257 122.736 255.921 122.29 255.292 122.922L249.531 128.706C249.343 128.894 249.088 129 248.822 129H239.692C238.802 129 238.355 127.925 238.983 127.294L256.709 109.5C256.895 109.312 257 109.059 257 108.794V99.6279C257 98.7361 255.921 98.2903 255.292 98.9222L225.624 128.706C225.436 128.894 225.181 129 224.915 129H215.785C214.895 129 214.449 127.925 215.077 127.294L256.709 85.4997C256.895 85.3123 257 85.0586 257 84.794V75.628C257 74.7361 255.921 74.2904 255.292 74.9222L201.717 128.706C201.53 128.894 201.275 129 201.009 129H191.879C190.989 129 190.542 127.925 191.17 127.294L256.709 61.4998C256.895 61.3124 257 61.0586 257 60.7941V51.628C257 50.7361 255.921 50.2904 255.292 50.9222L177.811 128.706C177.623 128.894 177.368 129 177.102 129H167.972C167.082 129 166.635 127.925 167.263 127.294L256.709 37.4997C256.895 37.3123 257 37.0586 257 36.794V27.6279C257 26.7361 255.921 26.2903 255.292 26.9222L153.904 128.706C153.716 128.894 153.461 129 153.196 129H144.065C143.175 129 142.729 127.925 143.357 127.294L256.709 13.4997C256.895 13.3123 257 13.0586 257 12.794V1M385 129L513 1M385 129V117.206C385 116.941 385.105 116.688 385.292 116.5L498.643 2.70573C499.271 2.0752 498.825 1 497.935 1H488.804C488.539 1 488.284 1.1059 488.096 1.29428L386.709 103.078C386.079 103.71 385 103.264 385 102.372V93.206C385 92.9414 385.105 92.6877 385.292 92.5003L474.737 2.70573C475.365 2.0752 474.918 1 474.028 1H464.898C464.632 1 464.377 1.10589 464.189 1.29427L386.709 79.0778C386.079 79.7096 385 79.2639 385 78.372V69.2059C385 68.9414 385.105 68.6876 385.292 68.5002L450.83 2.70573C451.458 2.0752 451.011 1 450.122 1H440.991C440.725 1 440.47 1.10589 440.283 1.29427L386.709 55.0778C386.079 55.7096 385 55.2639 385 54.372V45.206C385 44.9414 385.105 44.6877 385.292 44.5003L426.923 2.70573C427.552 2.0752 427.105 1 426.215 1H417.085C416.819 1 416.564 1.10589 416.376 1.29427L386.709 31.0778C386.079 31.7097 385 31.2639 385 30.3721V21.206C385 20.9414 385.105 20.6877 385.292 20.5003L403.017 2.70573C403.645 2.0752 403.198 1 402.308 1H393.178C392.912 1 392.657 1.10589 392.47 1.29427L386.709 7.07776C386.079 7.70961 385 7.26387 385 6.37203V2C385 1.44772 384.552 1 384 1H257M129 129L257 1M257 1025L385 897M385 897V908.794C385 909.059 384.895 909.312 384.709 909.5L271.357 1023.29C270.729 1023.92 271.175 1025 272.065 1025H281.196C281.461 1025 281.716 1024.89 281.904 1024.71L383.292 922.922C383.921 922.29 385 922.736 385 923.628V932.794C385 933.059 384.895 933.312 384.709 933.5L295.263 1023.29C294.635 1023.92 295.082 1025 295.972 1025H305.102C305.368 1025 305.623 1024.89 305.811 1024.71L383.292 946.922C383.921 946.29 385 946.736 385 947.628V956.794C385 957.059 384.895 957.312 384.709 957.5L319.17 1023.29C318.542 1023.92 318.989 1025 319.879 1025H329.009C329.275 1025 329.53 1024.89 329.717 1024.71L383.292 970.922C383.921 970.29 385 970.736 385 971.628V980.794C385 981.059 384.895 981.312 384.709 981.5L343.077 1023.29C342.449 1023.92 342.895 1025 343.785 1025H352.915C353.181 1025 353.436 1024.89 353.624 1024.71L383.292 994.922C383.921 994.29 385 994.736 385 995.628V1004.79C385 1005.06 384.895 1005.31 384.709 1005.5L366.983 1023.29C366.355 1023.92 366.802 1025 367.692 1025H376.822C377.088 1025 377.343 1024.89 377.531 1024.71L383.292 1018.92C383.921 1018.29 385 1018.74 385 1019.63V1024C385 1024.55 385.448 1025 386 1025H513M385 897L513 769M513 769V780.794C513 781.059 512.895 781.312 512.708 781.5L399.357 895.294C398.729 895.925 399.175 897 400.065 897H409.196C409.461 897 409.716 896.894 409.904 896.706L511.292 794.922C511.921 794.29 513 794.736 513 795.628V804.794C513 805.059 512.895 805.312 512.708 805.5L423.263 895.294C422.635 895.925 423.082 897 423.972 897H433.102C433.368 897 433.623 896.894 433.811 896.706L511.292 818.922C511.921 818.29 513 818.736 513 819.628V828.794C513 829.059 512.895 829.312 512.708 829.5L447.17 895.294C446.542 895.925 446.989 897 447.879 897H457.009C457.275 897 457.53 896.894 457.717 896.706L511.292 842.922C511.921 842.29 513 842.736 513 843.628V852.794C513 853.059 512.895 853.312 512.708 853.5L471.077 895.294C470.449 895.925 470.895 897 471.785 897H480.915C481.181 897 481.436 896.894 481.624 896.706L511.292 866.922C511.921 866.29 513 866.736 513 867.628V876.794C513 877.059 512.895 877.312 512.708 877.5L494.983 895.294C494.355 895.925 494.802 897 495.692 897H504.822C505.088 897 505.343 896.894 505.531 896.706L511.292 890.922C511.921 890.29 513 890.736 513 891.628V897V902.372C513 903.264 514.079 903.71 514.708 903.078L520.469 897.294C520.657 897.106 520.912 897 521.178 897H530.308C531.198 897 531.645 898.075 531.017 898.706L513.292 916.5C513.105 916.688 513 916.941 513 917.206V926.372C513 927.264 514.079 927.71 514.708 927.078L544.376 897.294C544.564 897.106 544.819 897 545.085 897H554.215C555.105 897 555.552 898.075 554.923 898.706L513.292 940.5C513.105 940.688 513 940.941 513 941.206V950.372C513 951.264 514.079 951.71 514.708 951.078L568.283 897.294C568.47 897.106 568.725 897 568.991 897H578.121C579.011 897 579.458 898.075 578.83 898.706L513.292 964.5C513.105 964.688 513 964.941 513 965.206V974.372C513 975.264 514.079 975.71 514.708 975.078L592.189 897.294C592.377 897.106 592.632 897 592.898 897H602.028C602.918 897 603.365 898.075 602.737 898.706L513.292 988.5C513.105 988.688 513 988.941 513 989.206V998.372C513 999.264 514.079 999.71 514.708 999.078L616.096 897.294C616.284 897.106 616.539 897 616.804 897H625.935C626.825 897 627.271 898.075 626.643 898.706L513.292 1012.5C513.105 1012.69 513 1012.94 513 1013.21V1025M513 769L641 641M641 641V652.794C641 653.059 640.895 653.312 640.708 653.5L527.357 767.294C526.729 767.925 527.175 769 528.065 769H537.196C537.461 769 537.716 768.894 537.904 768.706L639.292 666.922C639.921 666.29 641 666.736 641 667.628V676.794C641 677.059 640.895 677.312 640.708 677.5L551.263 767.294C550.635 767.925 551.082 769 551.972 769H561.102C561.368 769 561.623 768.894 561.811 768.706L639.292 690.922C639.921 690.29 641 690.736 641 691.628V700.794C641 701.059 640.895 701.312 640.708 701.5L575.17 767.294C574.542 767.925 574.989 769 575.879 769H585.009C585.275 769 585.53 768.894 585.717 768.706L639.292 714.922C639.921 714.29 641 714.736 641 715.628V724.794C641 725.059 640.895 725.312 640.708 725.5L599.077 767.294C598.448 767.925 598.895 769 599.785 769H608.915C609.181 769 609.436 768.894 609.624 768.706L639.292 738.922C639.921 738.29 641 738.736 641 739.628V748.794C641 749.059 640.895 749.312 640.708 749.5L622.983 767.294C622.355 767.925 622.802 769 623.692 769H632.822C633.088 769 633.343 768.894 633.531 768.706L639.292 762.922C639.921 762.29 641 762.736 641 763.628V769V774.372C641 775.264 642.079 775.71 642.708 775.078L648.469 769.294C648.657 769.106 648.912 769 649.178 769H658.308C659.198 769 659.645 770.075 659.017 770.706L641.292 788.5C641.105 788.688 641 788.941 641 789.206V798.372C641 799.264 642.079 799.71 642.708 799.078L672.376 769.294C672.564 769.106 672.819 769 673.085 769H682.215C683.105 769 683.552 770.075 682.923 770.706L641.292 812.5C641.105 812.688 641 812.941 641 813.206V822.372C641 823.264 642.079 823.71 642.708 823.078L696.283 769.294C696.47 769.106 696.725 769 696.991 769H706.121C707.011 769 707.458 770.075 706.83 770.706L641.292 836.5C641.105 836.688 641 836.941 641 837.206V846.372C641 847.264 642.079 847.71 642.708 847.078L720.189 769.294C720.377 769.106 720.632 769 720.898 769H730.028C730.918 769 731.365 770.075 730.737 770.706L641.292 860.5C641.105 860.688 641 860.941 641 861.206V870.372C641 871.264 642.079 871.71 642.708 871.078L744.096 769.294C744.284 769.106 744.539 769 744.804 769H753.935C754.825 769 755.271 770.075 754.643 770.706L641.292 884.5C641.105 884.688 641 884.941 641 885.206V897M641 641L769 513M897 385L769 513M897 385V396.794C897 397.059 896.895 397.312 896.708 397.5L783.357 511.294C782.729 511.925 783.175 513 784.065 513H793.196C793.461 513 793.716 512.894 793.904 512.706L895.292 410.922C895.921 410.29 897 410.736 897 411.628V420.794C897 421.059 896.895 421.312 896.708 421.5L807.263 511.294C806.635 511.925 807.082 513 807.972 513H817.102C817.368 513 817.623 512.894 817.811 512.706L895.292 434.922C895.921 434.29 897 434.736 897 435.628V444.794C897 445.059 896.895 445.312 896.708 445.5L831.17 511.294C830.542 511.925 830.989 513 831.879 513H841.009C841.275 513 841.53 512.894 841.717 512.706L895.292 458.922C895.921 458.29 897 458.736 897 459.628V468.794C897 469.059 896.895 469.312 896.708 469.5L855.077 511.294C854.448 511.925 854.895 513 855.785 513H864.915C865.181 513 865.436 512.894 865.624 512.706L895.292 482.922C895.921 482.29 897 482.736 897 483.628V492.794C897 493.059 896.895 493.312 896.708 493.5L878.983 511.294C878.355 511.925 878.802 513 879.692 513H888.822C889.088 513 889.343 512.894 889.531 512.706L895.292 506.922C895.921 506.29 897 506.736 897 507.628V513V518.372C897 519.264 898.079 519.71 898.708 519.078L904.469 513.294C904.657 513.106 904.912 513 905.178 513H914.308C915.198 513 915.645 514.075 915.017 514.706L897.292 532.5C897.105 532.688 897 532.941 897 533.206V542.372C897 543.264 898.079 543.71 898.708 543.078L928.376 513.294C928.564 513.106 928.819 513 929.085 513H938.215C939.105 513 939.552 514.075 938.923 514.706L897.292 556.5C897.105 556.688 897 556.941 897 557.206V566.372C897 567.264 898.079 567.71 898.708 567.078L952.283 513.294C952.47 513.106 952.725 513 952.991 513H962.121C963.011 513 963.458 514.075 962.83 514.706L897.292 580.5C897.105 580.688 897 580.941 897 581.206V590.372C897 591.264 898.079 591.71 898.708 591.078L976.189 513.294C976.377 513.106 976.632 513 976.898 513H986.028C986.918 513 987.365 514.075 986.737 514.706L897.292 604.5C897.105 604.688 897 604.941 897 605.206V614.372C897 615.264 898.079 615.71 898.708 615.078L1000.1 513.294C1000.28 513.106 1000.54 513 1000.8 513H1009.93C1010.82 513 1011.27 514.075 1010.64 514.706L897.292 628.5C897.105 628.688 897 628.941 897 629.206V641M1025 513L897 641M1025 513V524.794C1025 525.059 1024.9 525.312 1024.71 525.5L911.357 639.294C910.729 639.925 911.175 641 912.065 641H921.196C921.461 641 921.716 640.894 921.904 640.706L1023.29 538.922C1023.92 538.29 1025 538.736 1025 539.628V548.794C1025 549.059 1024.9 549.312 1024.71 549.5L935.263 639.294C934.635 639.925 935.082 641 935.972 641H945.102C945.368 641 945.623 640.894 945.811 640.706L1023.29 562.922C1023.92 562.29 1025 562.736 1025 563.628V572.794C1025 573.059 1024.9 573.312 1024.71 573.5L959.17 639.294C958.542 639.925 958.989 641 959.879 641H969.009C969.275 641 969.53 640.894 969.717 640.706L1023.29 586.922C1023.92 586.29 1025 586.736 1025 587.628V596.794C1025 597.059 1024.9 597.312 1024.71 597.5L983.077 639.294C982.448 639.925 982.895 641 983.785 641H992.915C993.181 641 993.436 640.894 993.624 640.706L1023.29 610.922C1023.92 610.29 1025 610.736 1025 611.628V620.794C1025 621.059 1024.9 621.312 1024.71 621.5L1006.98 639.294C1006.36 639.925 1006.8 641 1007.69 641H1016.82C1017.09 641 1017.34 640.894 1017.53 640.706L1023.29 634.922C1023.92 634.29 1025 634.736 1025 635.628V769M769 513V524.794C769 525.059 768.895 525.312 768.708 525.5L655.357 639.294C654.729 639.925 655.175 641 656.065 641H665.196C665.461 641 665.716 640.894 665.904 640.706L767.292 538.922C767.921 538.29 769 538.736 769 539.628V548.794C769 549.059 768.895 549.312 768.708 549.5L679.263 639.294C678.635 639.925 679.082 641 679.972 641H689.102C689.368 641 689.623 640.894 689.811 640.706L767.292 562.922C767.921 562.29 769 562.736 769 563.628V572.794C769 573.059 768.895 573.312 768.708 573.5L703.17 639.294C702.542 639.925 702.989 641 703.879 641H713.009C713.275 641 713.53 640.894 713.717 640.706L767.292 586.922C767.921 586.29 769 586.736 769 587.628V596.794C769 597.059 768.895 597.312 768.708 597.5L727.077 639.294C726.448 639.925 726.895 641 727.785 641H736.915C737.181 641 737.436 640.894 737.624 640.706L767.292 610.922C767.921 610.29 769 610.736 769 611.628V620.794C769 621.059 768.895 621.312 768.708 621.5L750.983 639.294C750.355 639.925 750.802 641 751.692 641H760.822C761.088 641 761.343 640.894 761.531 640.706L767.292 634.922C767.921 634.29 769 634.736 769 635.628V641V646.372C769 647.264 770.079 647.71 770.708 647.078L776.469 641.294C776.657 641.106 776.912 641 777.178 641H786.308C787.198 641 787.645 642.075 787.017 642.706L769.292 660.5C769.105 660.688 769 660.941 769 661.206V670.372C769 671.264 770.079 671.71 770.708 671.078L800.376 641.294C800.564 641.106 800.819 641 801.085 641H810.215C811.105 641 811.552 642.075 810.923 642.706L769.292 684.5C769.105 684.688 769 684.941 769 685.206V694.372C769 695.264 770.079 695.71 770.708 695.078L824.283 641.294C824.47 641.106 824.725 641 824.991 641H834.121C835.011 641 835.458 642.075 834.83 642.706L769.292 708.5C769.105 708.688 769 708.941 769 709.206V718.372C769 719.264 770.079 719.71 770.708 719.078L848.189 641.294C848.377 641.106 848.632 641 848.898 641H858.028C858.918 641 859.365 642.075 858.737 642.706L769.292 732.5C769.105 732.688 769 732.941 769 733.206V742.372C769 743.264 770.079 743.71 770.708 743.078L872.096 641.294C872.284 641.106 872.539 641 872.804 641H881.935C882.825 641 883.271 642.075 882.643 642.706L769.292 756.5C769.105 756.688 769 756.941 769 757.206V769M513 1025L641 897M641 897V908.794C641 909.059 640.895 909.312 640.708 909.5L527.357 1023.29C526.729 1023.92 527.175 1025 528.065 1025H537.196C537.461 1025 537.716 1024.89 537.904 1024.71L639.292 922.922C639.921 922.29 641 922.736 641 923.628V932.794C641 933.059 640.895 933.312 640.708 933.5L551.263 1023.29C550.635 1023.92 551.082 1025 551.972 1025H561.102C561.368 1025 561.623 1024.89 561.811 1024.71L639.292 946.922C639.921 946.29 641 946.736 641 947.628V956.794C641 957.059 640.895 957.312 640.708 957.5L575.17 1023.29C574.542 1023.92 574.989 1025 575.879 1025H585.009C585.275 1025 585.53 1024.89 585.717 1024.71L639.292 970.922C639.921 970.29 641 970.736 641 971.628V980.794C641 981.059 640.895 981.312 640.708 981.5L599.077 1023.29C598.448 1023.92 598.895 1025 599.785 1025H608.915C609.181 1025 609.436 1024.89 609.624 1024.71L639.292 994.922C639.921 994.29 641 994.736 641 995.628V1004.79C641 1005.06 640.895 1005.31 640.708 1005.5L622.983 1023.29C622.355 1023.92 622.802 1025 623.692 1025H632.822C633.088 1025 633.343 1024.89 633.531 1024.71L639.292 1018.92C639.921 1018.29 641 1018.74 641 1019.63V1024C641 1024.55 641.448 1025 642 1025H769M641 897L769 769M769 769V780.794C769 781.059 768.895 781.312 768.708 781.5L655.357 895.294C654.729 895.925 655.175 897 656.065 897H665.196C665.461 897 665.716 896.894 665.904 896.706L767.292 794.922C767.921 794.29 769 794.736 769 795.628V804.794C769 805.059 768.895 805.312 768.708 805.5L679.263 895.294C678.635 895.925 679.082 897 679.972 897H689.102C689.368 897 689.623 896.894 689.811 896.706L767.292 818.922C767.921 818.29 769 818.736 769 819.628V828.794C769 829.059 768.895 829.312 768.708 829.5L703.17 895.294C702.542 895.925 702.989 897 703.879 897H713.009C713.275 897 713.53 896.894 713.717 896.706L767.292 842.922C767.921 842.29 769 842.736 769 843.628V852.794C769 853.059 768.895 853.312 768.708 853.5L727.077 895.294C726.448 895.925 726.895 897 727.785 897H736.915C737.181 897 737.436 896.894 737.624 896.706L767.292 866.922C767.921 866.29 769 866.736 769 867.628V876.794C769 877.059 768.895 877.312 768.708 877.5L750.983 895.294C750.355 895.925 750.802 897 751.692 897H760.822C761.088 897 761.343 896.894 761.531 896.706L767.292 890.922C767.921 890.29 769 890.736 769 891.628V897V902.372C769 903.264 770.079 903.71 770.708 903.078L776.469 897.294C776.657 897.106 776.912 897 777.178 897H786.308C787.198 897 787.645 898.075 787.017 898.706L769.292 916.5C769.105 916.688 769 916.941 769 917.206V926.372C769 927.264 770.079 927.71 770.708 927.078L800.376 897.294C800.564 897.106 800.819 897 801.085 897H810.215C811.105 897 811.552 898.075 810.923 898.706L769.292 940.5C769.105 940.688 769 940.941 769 941.206V950.372C769 951.264 770.079 951.71 770.708 951.078L824.283 897.294C824.47 897.106 824.725 897 824.991 897H834.121C835.011 897 835.458 898.075 834.83 898.706L769.292 964.5C769.105 964.688 769 964.941 769 965.206V974.372C769 975.264 770.079 975.71 770.708 975.078L848.189 897.294C848.377 897.106 848.632 897 848.898 897H858.028C858.918 897 859.365 898.075 858.737 898.706L769.292 988.5C769.105 988.688 769 988.941 769 989.206V998.372C769 999.264 770.079 999.71 770.708 999.078L872.096 897.294C872.284 897.106 872.539 897 872.804 897H881.935C882.825 897 883.271 898.075 882.643 898.706L769.292 1012.5C769.105 1012.69 769 1012.94 769 1013.21V1025M769 769L897 641M897 641V652.794C897 653.059 896.895 653.312 896.708 653.5L783.357 767.294C782.729 767.925 783.175 769 784.065 769H793.196C793.461 769 793.716 768.894 793.904 768.706L895.292 666.922C895.921 666.29 897 666.736 897 667.628V676.794C897 677.059 896.895 677.312 896.708 677.5L807.263 767.294C806.635 767.925 807.082 769 807.972 769H817.102C817.368 769 817.623 768.894 817.811 768.706L895.292 690.922C895.921 690.29 897 690.736 897 691.628V700.794C897 701.059 896.895 701.312 896.708 701.5L831.17 767.294C830.542 767.925 830.989 769 831.879 769H841.009C841.275 769 841.53 768.894 841.717 768.706L895.292 714.922C895.921 714.29 897 714.736 897 715.628V724.794C897 725.059 896.895 725.312 896.708 725.5L855.077 767.294C854.448 767.925 854.895 769 855.785 769H864.915C865.181 769 865.436 768.894 865.624 768.706L895.292 738.922C895.921 738.29 897 738.736 897 739.628V748.794C897 749.059 896.895 749.312 896.708 749.5L878.983 767.294C878.355 767.925 878.802 769 879.692 769H888.822C889.088 769 889.343 768.894 889.531 768.706L895.292 762.922C895.921 762.29 897 762.736 897 763.628V769V774.372C897 775.264 898.079 775.71 898.708 775.078L904.469 769.294C904.657 769.106 904.912 769 905.178 769H914.308C915.198 769 915.645 770.075 915.017 770.706L897.292 788.5C897.105 788.688 897 788.941 897 789.206V798.372C897 799.264 898.079 799.71 898.708 799.078L928.376 769.294C928.564 769.106 928.819 769 929.085 769H938.215C939.105 769 939.552 770.075 938.923 770.706L897.292 812.5C897.105 812.688 897 812.941 897 813.206V822.372C897 823.264 898.079 823.71 898.708 823.078L952.283 769.294C952.47 769.106 952.725 769 952.991 769H962.121C963.011 769 963.458 770.075 962.83 770.706L897.292 836.5C897.105 836.688 897 836.941 897 837.206V846.372C897 847.264 898.079 847.71 898.708 847.078L976.189 769.294C976.377 769.106 976.632 769 976.898 769H986.028C986.918 769 987.365 770.075 986.737 770.706L897.292 860.5C897.105 860.688 897 860.941 897 861.206V870.372C897 871.264 898.079 871.71 898.708 871.078L1000.1 769.294C1000.28 769.106 1000.54 769 1000.8 769H1009.93C1010.82 769 1011.27 770.075 1010.64 770.706L897.292 884.5C897.105 884.688 897 884.941 897 885.206V897M1025 769L897 897M1025 769V780.794C1025 781.059 1024.9 781.312 1024.71 781.5L911.357 895.294C910.729 895.925 911.175 897 912.065 897H921.196C921.461 897 921.716 896.894 921.904 896.706L1023.29 794.922C1023.92 794.29 1025 794.736 1025 795.628V804.794C1025 805.059 1024.9 805.312 1024.71 805.5L935.263 895.294C934.635 895.925 935.082 897 935.972 897H945.102C945.368 897 945.623 896.894 945.811 896.706L1023.29 818.922C1023.92 818.29 1025 818.736 1025 819.628V828.794C1025 829.059 1024.9 829.312 1024.71 829.5L959.17 895.294C958.542 895.925 958.989 897 959.879 897H969.009C969.275 897 969.53 896.894 969.717 896.706L1023.29 842.922C1023.92 842.29 1025 842.736 1025 843.628V852.794C1025 853.059 1024.9 853.312 1024.71 853.5L983.077 895.294C982.448 895.925 982.895 897 983.785 897H992.915C993.181 897 993.436 896.894 993.624 896.706L1023.29 866.922C1023.92 866.29 1025 866.736 1025 867.628V876.794C1025 877.059 1024.9 877.312 1024.71 877.5L1006.98 895.294C1006.36 895.925 1006.8 897 1007.69 897H1016.82C1017.09 897 1017.34 896.894 1017.53 896.706L1023.29 890.922C1023.92 890.29 1025 890.736 1025 891.628V1024C1025 1024.55 1024.55 1025 1024 1025H898C897.448 1025 897 1024.55 897 1024V1019.63C897 1018.74 895.921 1018.29 895.292 1018.92L889.531 1024.71C889.343 1024.89 889.088 1025 888.822 1025H879.692C878.802 1025 878.355 1023.92 878.983 1023.29L896.708 1005.5C896.895 1005.31 897 1005.06 897 1004.79V995.628C897 994.736 895.921 994.29 895.292 994.922L865.624 1024.71C865.436 1024.89 865.181 1025 864.915 1025H855.785C854.895 1025 854.448 1023.92 855.077 1023.29L896.708 981.5C896.895 981.312 897 981.059 897 980.794V971.628C897 970.736 895.921 970.29 895.292 970.922L841.717 1024.71C841.53 1024.89 841.275 1025 841.009 1025H831.879C830.989 1025 830.542 1023.92 831.17 1023.29L896.708 957.5C896.895 957.312 897 957.059 897 956.794V947.628C897 946.736 895.921 946.29 895.292 946.922L817.811 1024.71C817.623 1024.89 817.368 1025 817.102 1025H807.972C807.082 1025 806.635 1023.92 807.263 1023.29L896.708 933.5C896.895 933.312 897 933.059 897 932.794V923.628C897 922.736 895.921 922.29 895.292 922.922L793.904 1024.71C793.716 1024.89 793.461 1025 793.196 1025H784.065C783.175 1025 782.729 1023.92 783.357 1023.29L896.708 909.5C896.895 909.312 897 909.059 897 908.794V897M769 1025L897 897" stroke="#ffffff" stroke-width="2"/>
</svg>
