<svg width="128" height="128" viewBox="0 0 128 128" fill="none" xmlns="http://www.w3.org/2000/svg">
<path id="fill" fill="white" fill-rule="evenodd" clip-rule="evenodd" d="M45.3155 68.1182C45.446 68.0395 45.5964 67.9942 45.7484 67.9834C52.3124 67.5188 55.8152 67.4032 63.5022 59.1127C63.9872 58.5897 64.8586 58.7086 65.1288 59.3687C66.6215 63.0157 66.3317 65.6954 61.5922 70.9154C61.5421 70.9705 61.4826 71.0227 61.4214 71.0653C48.3508 80.171 44.7546 84.8786 42.5152 95C52.5152 92.5 84.5152 93 96.5152 95C99.0152 84.5 102.515 74.5 101.515 66C100.024 43.1409 85.6923 25.2207 62.9368 24.0203C62.6694 24.0062 62.411 23.8846 62.2314 23.6859C55.8489 16.6282 53.4166 14.3517 52.0152 14.5C50.2975 14.9275 48.1035 17.3998 47.5467 24.0914C47.5251 24.3514 47.4009 24.6014 47.2064 24.7751C38.5638 32.4939 37.9031 34.6982 34.5875 45.7586L34.5152 46C29.8014 53.0673 27.0681 56.9937 22.1896 63.7581C22.0767 63.9147 22.0087 64.1081 22.0038 64.3011C21.7656 73.7079 32.7967 75.3936 38.0014 75.4949C38.3243 75.5012 38.6271 75.3433 38.8146 75.0804C41.0891 71.8929 42.6322 69.7369 45.3155 68.1182ZM53.5151 36C51.3771 36 50.0001 37.9779 48.9953 40.612C48.744 41.2709 49.2772 41.9488 49.9801 41.8934C52.9612 41.658 55.4982 41.2923 56.0151 40C56.6151 38.5 56.0151 36 53.5151 36Z"/>
<path id="fill" fill="white" d="M105.015 105C105.108 100.528 101.075 96.4333 96.5152 95C84.5152 93 52.5152 92.5 42.5152 95C39.5314 95.4973 34.5694 98.4675 33.5318 103.911C33.5206 103.97 33.5152 104.03 33.5152 104.09V113C33.5152 113.552 33.9629 114 34.5152 114H104.015C104.567 114 105.015 113.552 105.015 113V105Z"/>
<path id="outline" stroke="white" stroke-width="4" d="M51.8047 12.5111L51.6667 12.5257L51.5321 12.5592C49.9745 12.9469 48.6053 14.1502 47.5949 15.9798C46.6195 17.746 45.9012 20.2149 45.5878 23.5397C41.4127 27.2862 38.9521 29.8972 37.1638 33.0198C35.3891 36.1187 34.3356 39.6334 32.7378 44.9638L32.6853 45.139C28.0871 52.029 25.3749 55.9224 20.5675 62.5883C20.2304 63.0556 20.02 63.6359 20.0044 64.2505C19.9342 67.0254 20.7032 69.3306 22.0555 71.1835C23.3872 73.0079 25.207 74.2905 27.1012 75.1931C30.8508 76.9798 35.2374 77.4415 37.9625 77.4945C38.9696 77.5141 39.8861 77.0221 40.4427 76.2421L38.8146 75.0804L40.4427 76.2421C42.6843 73.1005 43.9931 71.3153 46.1376 69.961C46.1997 69.9566 46.2617 69.9523 46.3235 69.9479C49.3577 69.7354 52.101 69.5433 54.983 68.3249C57.708 67.1729 60.4261 65.1718 63.7961 61.7083C63.9831 62.5476 63.9708 63.2722 63.7662 64.0327C63.4177 65.3284 62.4406 66.9928 60.1864 69.4882C53.8174 73.9302 49.5194 77.4492 46.5355 81.1625C43.5935 84.8237 42.0047 88.5766 40.8439 93.3535C37.3647 94.4501 32.6631 97.7867 31.5672 103.536C31.5311 103.725 31.5152 103.912 31.5152 104.09V113C31.5152 114.657 32.8583 116 34.5152 116H104.015C105.672 116 107.015 114.657 107.015 113V105.019C107.108 99.9923 103.213 95.7594 98.8732 93.7691C99.2769 92.1441 99.7056 90.5027 100.133 88.8652C100.943 85.7658 101.749 82.6805 102.374 79.7467C103.393 74.9733 104.02 70.2565 103.508 65.8186C101.958 42.3556 87.1925 23.5007 63.4447 22.046C60.402 18.6871 58.2164 16.375 56.5984 14.9087C55.7682 14.1564 55.0109 13.5554 54.3047 13.1479C53.6122 12.7483 52.7569 12.4103 51.8047 12.5111Z"/>
<path id="contour" stroke="black" stroke-width="2" d="M34.5152 46C29.8014 53.0673 27.0681 56.9937 22.1896 63.7581C22.0767 63.9147 22.0087 64.1081 22.0038 64.3011C21.7656 73.7079 32.7967 75.3936 38.0014 75.4949C38.3243 75.5012 38.6271 75.3433 38.8146 75.0804C41.0891 71.8929 42.6322 69.7369 45.3155 68.1182C45.446 68.0395 45.5964 67.9942 45.7484 67.9834C52.3124 67.5188 55.8152 67.4032 63.5022 59.1127C63.9872 58.5897 64.8586 58.7086 65.1288 59.3687C66.6215 63.0157 66.3317 65.6954 61.5922 70.9154C61.5421 70.9705 61.4826 71.0227 61.4214 71.0653C48.3508 80.171 44.7546 84.8786 42.5152 95M34.5152 46L34.5875 45.7586M34.5152 46C34.5394 45.9191 34.5635 45.8386 34.5875 45.7586M96.5152 95C99.0152 84.5 102.515 74.5 101.515 66C100.024 43.1409 85.6923 25.2207 62.9368 24.0203C62.6694 24.0062 62.411 23.8846 62.2314 23.6859C55.8489 16.6282 53.4166 14.3517 52.0152 14.5C50.2975 14.9275 48.1035 17.3998 47.5467 24.0914C47.5251 24.3514 47.4009 24.6014 47.2064 24.7751C38.5638 32.4939 37.9031 34.6982 34.5875 45.7586M96.5152 95C101.075 96.4333 105.108 100.528 105.015 105V113C105.015 113.552 104.567 114 104.015 114H34.5152C33.9629 114 33.5152 113.552 33.5152 113V104.09C33.5152 104.03 33.5206 103.97 33.5318 103.911C34.5694 98.4675 39.5314 95.4973 42.5152 95M96.5152 95C84.5152 93 52.5152 92.5 42.5152 95M48.9953 40.612C50.0001 37.9779 51.3771 36 53.5151 36C56.0151 36 56.6151 38.5 56.0151 40C55.4982 41.2923 52.9612 41.658 49.9801 41.8934C49.2772 41.9488 48.744 41.2709 48.9953 40.612Z"/>
</svg>
