<svg width="128" height="128" viewBox="0 0 128 128" fill="none" xmlns="http://www.w3.org/2000/svg">
<path id="fill" fill="white" d="M38.0498 96.4692C48.3416 90.0853 53.8153 82.7347 54.4706 72.5255C54.4889 72.2406 54.2611 72 53.9756 72H47.214C47.0773 72 46.946 71.9443 46.8536 71.8435C45.1819 70.0208 44.5412 68.0493 44.5019 65.2771C44.4995 65.1048 44.5904 64.9435 44.7366 64.8521C48.3597 62.5853 49.9137 61.5601 53.4006 59.3751C53.6926 59.1921 53.713 58.77 53.4517 58.5453C41.7115 48.4503 48.732 30.5 64 30.5C79.2565 30.5 85.7935 48.9076 74.552 58.5453C74.2896 58.7702 74.3097 59.1936 74.6026 59.3771C78.0873 61.5608 79.6414 62.586 83.2634 64.8521C83.4096 64.9435 83.5005 65.1048 83.4981 65.2771C83.4588 68.0493 82.8181 70.0208 81.1464 71.8435C81.054 71.9443 80.9227 72 80.786 72H74.0244C73.7389 72 73.5111 72.2406 73.5294 72.5255C74.1847 82.7347 79.6584 90.0853 89.9502 96.4692C89.983 96.4895 90.0138 96.5138 90.041 96.5411C93.0228 99.5319 95.5023 103.018 96 107V114C96 114.276 95.7761 114.5 95.5 114.5H32.5C32.2239 114.5 32 114.276 32 114V107C32.4977 103.018 34.9772 99.5319 37.959 96.5411C37.9862 96.5138 38.017 96.4895 38.0498 96.4692Z"/>
<path id="outline" stroke="white" stroke-width="4" d="M30.0154 106.752L30 106.875V107V114C30 115.381 31.1193 116.5 32.5 116.5H95.5C96.8807 116.5 98 115.381 98 114V107V106.875L97.9846 106.752C97.4045 102.111 94.5499 98.2309 91.4574 95.129C91.3178 94.989 91.1648 94.869 91.0045 94.7696C81.6452 88.9642 76.716 82.555 75.6736 74H80.786C81.4628 74 82.1356 73.7239 82.6203 73.1954C84.6987 70.9292 85.4534 68.4449 85.4979 65.3054L85.4979 65.3054C85.5105 64.4092 85.042 63.6057 84.3242 63.1565C82.5199 62.0277 81.231 61.2082 79.9552 60.3964L79.8221 60.3116C79.0206 59.8016 78.2169 59.2901 77.2884 58.7038C87.8829 47.5859 80.4355 28.5 64 28.5C47.6117 28.5 39.5775 47.1743 50.7092 58.7053C49.7814 59.2912 48.9782 59.8024 48.1771 60.3122L48.0459 60.3956C46.7698 61.2077 45.4807 62.0274 43.6758 63.1565C42.958 63.6056 42.4894 64.4092 42.5021 65.3054C42.5466 68.4449 43.3013 70.9292 45.3797 73.1954L46.8536 71.8435L45.3797 73.1954C45.8644 73.7238 46.5372 74 47.214 74H52.3264C51.284 82.555 46.3548 88.9642 36.9955 94.7696L38.0498 96.4692L36.9955 94.7696C36.8352 94.869 36.6822 94.989 36.5426 95.129L37.959 96.5411L36.5426 95.129C33.4501 98.2309 30.5955 102.111 30.0154 106.752Z"/>
<path id="contour" stroke="black" stroke-width="2" d="M38.0498 96.4692C48.3416 90.0853 53.8153 82.7347 54.4706 72.5255C54.4889 72.2406 54.2611 72 53.9756 72H47.214C47.0773 72 46.946 71.9443 46.8536 71.8435C45.1819 70.0208 44.5412 68.0493 44.5019 65.2771C44.4995 65.1048 44.5904 64.9435 44.7366 64.8521C48.3597 62.5853 49.9137 61.5601 53.4006 59.3751C53.6926 59.1921 53.713 58.77 53.4517 58.5453C41.7115 48.4503 48.732 30.5 64 30.5C79.2565 30.5 85.7935 48.9076 74.552 58.5453C74.2896 58.7702 74.3097 59.1936 74.6026 59.3771C78.0873 61.5608 79.6414 62.586 83.2634 64.8521C83.4096 64.9435 83.5005 65.1048 83.4981 65.2771C83.4588 68.0493 82.8181 70.0208 81.1464 71.8435C81.054 71.9443 80.9227 72 80.786 72H74.0244C73.7389 72 73.5111 72.2406 73.5294 72.5255C74.1847 82.7347 79.6584 90.0853 89.9502 96.4692C89.983 96.4895 90.0138 96.5138 90.041 96.5411C93.0228 99.5319 95.5023 103.018 96 107V114C96 114.276 95.7761 114.5 95.5 114.5H32.5C32.2239 114.5 32 114.276 32 114V107C32.4977 103.018 34.9772 99.5319 37.959 96.5411C37.9862 96.5138 38.017 96.4895 38.0498 96.4692Z"/>
</svg>
