<svg width="128" height="128" viewBox="0 0 128 128" fill="none" xmlns="http://www.w3.org/2000/svg">
<path id="fill" fill="white" d="M28.5 113.5V104.055C28.5 104.018 28.504 103.982 28.512 103.946C29.516 99.4682 31.5338 95.496 40 94.5L23.6013 55.2424C23.5379 55.0906 23.3998 54.9796 23.2397 54.9422C13.9914 52.7795 13.5599 40.9631 20 37C26.4436 33.0347 37.8008 38.4053 33.6135 49.702C33.5471 49.8812 33.5821 50.0892 33.7115 50.2298L44.1766 61.605C44.479 61.9337 45.028 61.731 45.0442 61.2846L45.9885 35.3155C45.9955 35.1227 45.8853 34.9408 45.716 34.8485C34.5836 28.7769 39.5791 15.5541 49 15C58.4116 14.4464 64.388 24.8044 56.7198 32.7759C56.5885 32.9124 56.5378 33.1135 56.5977 33.2931L64.0257 55.577C64.1776 56.0328 64.8224 56.0328 64.9743 55.577L72.4023 33.2931C72.4622 33.1135 72.4115 32.9124 72.2802 32.7759C64.612 24.8044 70.5884 14.4464 80 15C89.4209 15.5542 94.4164 28.7769 83.284 34.8485C83.1147 34.9408 83.0045 35.1228 83.0115 35.3155L83.9558 61.2846C83.972 61.731 84.521 61.9337 84.8234 61.605L95.2885 50.2299C95.4179 50.0892 95.4529 49.8812 95.3865 49.702C91.1992 38.4053 102.556 33.0347 109 37C115.44 40.9631 115.009 52.7795 105.76 54.9422C105.6 54.9796 105.462 55.0906 105.399 55.2424L89 94.5C97.4662 95.496 99.484 99.4683 100.488 103.946C100.496 103.982 100.5 104.018 100.5 104.055V113.5C100.5 113.776 100.276 114 100 114L29 114C28.7239 114 28.5 113.776 28.5 113.5Z"/>
<path id="outline" stroke="white" stroke-width="4" d="M26.5604 103.509L28.512 103.946L26.5604 103.509C26.5199 103.689 26.5 103.873 26.5 104.055V113.5C26.5 114.881 27.6193 116 29 116L100 116C101.381 116 102.5 114.881 102.5 113.5V104.055C102.5 103.873 102.48 103.689 102.44 103.509C101.922 101.201 101.089 98.7119 99.1144 96.6635C97.4281 94.9145 95.0745 93.6529 91.8189 92.9406L106.96 56.6934C112.021 55.2039 114.725 51.1328 115.248 46.8911C115.784 42.5478 114.057 37.7636 110.048 35.2967C106.066 32.8461 100.74 33.3254 97.034 36.0076C95.1424 37.3767 93.627 39.3477 92.917 41.8475C92.272 44.1188 92.3237 46.7113 93.2138 49.531L85.8219 57.5657L85.0428 36.1413C90.7399 32.6542 92.5 27.2043 91.2896 22.3695C90.063 17.4701 85.782 13.3367 80.1174 13.0035C74.6252 12.6804 70.0112 15.5549 67.937 19.8156C65.9325 23.933 66.4128 29.0891 70.2275 33.4931L64.5 50.6754L58.7725 33.4931C62.5872 29.0891 63.0675 23.933 61.063 19.8156C58.9888 15.5549 54.3748 12.6804 48.8826 13.0034C43.218 13.3366 38.937 17.47 37.7104 22.3695C36.5 27.2043 38.2601 32.6542 43.9572 36.1413L43.1781 57.5657L35.7862 49.531C36.6763 46.7113 36.7281 44.1188 36.083 41.8475C35.373 39.3477 33.8576 37.3766 31.966 36.0076C28.2601 33.3254 22.9341 32.846 18.9518 35.2967C14.9431 37.7636 13.2159 42.5478 13.7517 46.8911C14.275 51.1328 16.9795 55.2039 22.0399 56.6934L37.1811 92.9406C33.9255 93.6529 31.5719 94.9145 29.8856 96.6635C27.9107 98.7119 27.078 101.201 26.5604 103.509ZM107.244 56.0133C107.244 56.0142 107.243 56.0151 107.243 56.016L107.244 56.0133L105.877 55.4423L107.244 56.0133ZM85.0102 35.2428C85.0102 35.2435 85.0102 35.2442 85.0102 35.2449L85.0102 35.2428ZM70.5049 32.6607L70.5042 32.663L70.5049 32.6607ZM58.4951 32.6607C58.4954 32.6616 58.4957 32.6624 58.496 32.6633L58.4951 32.6607ZM35.1833 48.8757C35.1838 48.8762 35.1842 48.8767 35.1846 48.8772L35.1833 48.8757Z"/>
<path id="contour" stroke="black" stroke-width="2" d="M40 94.5C31.5338 95.496 29.516 99.4682 28.512 103.946C28.504 103.982 28.5 104.018 28.5 104.055V113.5C28.5 113.776 28.7239 114 29 114L100 114C100.276 114 100.5 113.776 100.5 113.5V104.055C100.5 104.018 100.496 103.982 100.488 103.946C99.484 99.4683 97.4662 95.496 89 94.5M40 94.5L23.6013 55.2424C23.5379 55.0906 23.3998 54.9796 23.2397 54.9422C13.9914 52.7795 13.5599 40.9631 20 37C26.4436 33.0347 37.8008 38.4053 33.6135 49.702C33.5471 49.8812 33.5821 50.0892 33.7115 50.2298L44.1766 61.605C44.479 61.9337 45.028 61.731 45.0442 61.2846L45.9885 35.3155C45.9955 35.1227 45.8853 34.9408 45.716 34.8485C34.5836 28.7769 39.5791 15.5541 49 15C58.4116 14.4464 64.388 24.8044 56.7198 32.7759C56.5885 32.9124 56.5378 33.1135 56.5977 33.2931L64.0257 55.577C64.1776 56.0328 64.8224 56.0328 64.9743 55.577L72.4023 33.2931C72.4622 33.1135 72.4115 32.9124 72.2802 32.7759C64.612 24.8044 70.5884 14.4464 80 15C89.4209 15.5542 94.4164 28.7769 83.284 34.8485C83.1147 34.9408 83.0045 35.1228 83.0115 35.3155L83.9558 61.2846C83.972 61.731 84.521 61.9337 84.8234 61.605L95.2885 50.2299C95.4179 50.0892 95.4529 49.8812 95.3865 49.702C91.1992 38.4053 102.556 33.0347 109 37C115.44 40.9631 115.009 52.7795 105.76 54.9422C105.6 54.9796 105.462 55.0906 105.399 55.2424L89 94.5M40 94.5C59.0532 93.0915 69.7799 93.1483 89 94.5"/>
</svg>
