<svg width="128" height="128" viewBox="0 0 128 128" fill="none" xmlns="http://www.w3.org/2000/svg">
<path id="fill" fill="white" d="M34.3005 26.8726C38.4951 25.1069 41.0763 24.6116 45.6064 24.9674C45.8369 24.9855 46.0244 25.1627 46.0587 25.3914C46.8422 30.6202 47.3229 33.6302 48.3633 35.7346C48.4449 35.8996 48.615 36 48.7991 36H54.1397C54.3549 36 54.5468 35.8629 54.6089 35.6568C55.4794 32.7671 55.5176 28.962 55.9662 23.413C55.9855 23.1739 56.1743 22.9813 56.4128 22.9566C62.3546 22.3399 65.792 22.3664 71.5644 22.9572C71.8033 22.9816 71.9923 23.1743 72.0117 23.4137C72.4603 28.9623 72.4985 32.7672 73.3689 35.6568C73.431 35.8629 73.6229 36 73.8381 36H79.1787C79.3629 36 79.5329 35.8996 79.6145 35.7346C80.655 33.6302 81.1357 30.6202 81.9191 25.3914C81.9534 25.1627 82.1409 24.9855 82.3714 24.9674C86.9016 24.6116 89.4827 25.1069 93.6773 26.8726C93.8595 26.9492 93.9796 27.1304 93.9824 27.328C94.1914 41.8414 94.4744 50.7691 84.9777 53.5L89.4777 94.5C98.0541 96.2529 100.19 101.516 99.9873 113.506C99.9827 113.778 99.7604 114 99.4885 114H28.4893C28.2174 114 27.9952 113.778 27.9903 113.506C27.7741 101.516 29.4013 96.2529 37.9777 94.5L42.9777 53.5C33.481 50.7691 33.7861 41.8414 33.9954 27.328C33.9983 27.1304 34.1184 26.9492 34.3005 26.8726Z"/>
<path id="outline" stroke="white" stroke-width="4" d="M79.969 25.095L81.947 25.3914L79.969 25.095C79.2844 29.6641 78.8586 32.2491 78.2117 34H75.0389C74.8245 32.9826 74.6773 31.7954 74.5524 30.3591C74.4617 29.3155 74.3905 28.2612 74.312 27.0979C74.2347 25.953 74.1502 24.7025 74.033 23.2526C73.9358 22.05 72.9924 21.09 71.7959 20.9676L71.5922 22.9572L71.7959 20.9675C65.893 20.3634 62.318 20.3358 56.2342 20.9672C55.0398 21.0912 54.0977 22.0501 54.0005 23.2518C53.8833 24.7022 53.7988 25.9529 53.7215 27.0979C53.643 28.2611 53.5718 29.3153 53.4811 30.3589C53.3562 31.7952 53.209 32.9825 52.9946 34H49.8218C49.1749 32.2491 48.7491 29.6641 48.0645 25.095L46.0865 25.3914L48.0645 25.095C47.8943 23.9593 46.9634 23.0656 45.7908 22.9735C43.4207 22.7874 41.4658 22.8164 39.5148 23.1537C37.5701 23.4898 35.7202 24.1167 33.5524 25.0292C32.6251 25.4196 32.0376 26.3217 32.0235 27.2991C32.0189 27.6173 32.0142 27.9335 32.0095 28.2478C31.9114 34.88 31.8262 40.6422 32.8813 45.0983C33.4469 47.4869 34.3645 49.6331 35.8744 51.4032C37.1594 52.9097 38.7991 54.0566 40.8241 54.8666L36.1889 92.8753C32.1801 93.9635 29.4352 96.0051 27.8393 99.4521C26.2244 102.94 25.9121 107.643 26.0184 113.542C26.0426 114.883 27.1341 116 28.5172 116H99.5164C100.899 116 101.992 114.883 102.015 113.54C102.115 107.6 101.67 102.89 99.9044 99.3925C98.1826 95.9816 95.3421 93.9615 91.3396 92.8789L87.1684 54.8741C89.2007 54.0644 90.8467 52.9164 92.1369 51.4074C93.6497 49.638 94.571 47.4923 95.1399 45.1033C96.206 40.6273 96.1208 34.8347 96.0227 28.1648C96.0185 27.8779 96.0142 27.5893 96.0101 27.2992C95.996 26.3217 95.4084 25.4196 94.4811 25.0292L93.7052 26.8726L94.4811 25.0292C92.3133 24.1167 90.4634 23.4898 88.5187 23.1537C86.5677 22.8164 84.6128 22.7874 82.2427 22.9735L82.3992 24.9674L82.2427 22.9735C81.07 23.0656 80.1392 23.9593 79.969 25.095ZM91.4539 93.9195L91.4535 93.9165L91.4539 93.9195Z"/>
<path id="contour" stroke="black" stroke-width="2" d="M42.9777 53.5C33.481 50.7691 33.7861 41.8414 33.9954 27.328C33.9983 27.1304 34.1184 26.9492 34.3005 26.8726C38.4951 25.1069 41.0763 24.6116 45.6064 24.9674C45.8369 24.9855 46.0244 25.1627 46.0587 25.3914C46.8422 30.6202 47.3229 33.6302 48.3633 35.7346C48.4449 35.8996 48.615 36 48.7991 36H54.1397C54.3549 36 54.5468 35.8629 54.6089 35.6568C55.4794 32.7671 55.5176 28.962 55.9662 23.413C55.9855 23.1739 56.1743 22.9813 56.4128 22.9566C62.3546 22.3399 65.792 22.3664 71.5644 22.9572C71.8033 22.9816 71.9923 23.1743 72.0117 23.4137C72.4603 28.9623 72.4985 32.7672 73.3689 35.6568C73.431 35.8629 73.6229 36 73.8381 36H79.1787C79.3629 36 79.5329 35.8996 79.6145 35.7346C80.655 33.6302 81.1357 30.6202 81.9191 25.3914C81.9534 25.1627 82.1409 24.9855 82.3714 24.9674C86.9016 24.6116 89.4827 25.1069 93.6773 26.8726C93.8595 26.9492 93.9796 27.1304 93.9824 27.328C94.1914 41.8414 94.4744 50.7691 84.9777 53.5M42.9777 53.5L37.9777 94.5M42.9777 53.5C59.3235 50.8094 68.5211 50.8746 84.9777 53.5M37.9777 94.5C29.4013 96.2529 27.7741 101.516 27.9903 113.506C27.9952 113.778 28.2174 114 28.4893 114H99.4885C99.7604 114 99.9827 113.778 99.9873 113.506C100.19 101.516 98.0541 96.2529 89.4777 94.5M37.9777 94.5C57.9929 92.784 68.8808 92.8475 89.4777 94.5M84.9777 53.5L89.4777 94.5"/>
</svg>
