<svg width="396" height="396" viewBox="0 0 396 396" fill="none" xmlns="http://www.w3.org/2000/svg">
<path d="M38.5354 101.46L38.5375 101.462L135.086 197.965L38.5354 294.515C21.1601 311.891 21.1549 340.042 38.5198 357.424C47.2325 366.19 58.6489 370.5 69.9975 370.5C81.3399 370.5 92.7688 366.195 101.481 357.423C101.487 357.417 101.493 357.411 101.5 357.404L197.987 260.981L294.513 357.457C294.514 357.458 294.515 357.459 294.516 357.46C303.195 366.152 314.598 370.5 325.978 370.5C337.31 370.5 348.758 366.208 357.436 357.468C374.795 340.086 374.788 311.939 357.415 294.565L260.912 198.062L357.465 101.51C374.845 84.129 374.845 55.966 357.465 38.5854C340.084 21.2049 311.921 21.2049 294.54 38.5854L197.991 135.135L101.463 38.5386L101.46 38.5354C84.079 21.1549 55.916 21.1549 38.5354 38.5354C21.1549 55.916 21.1549 84.079 38.5354 101.46Z" fill="white" stroke="black" stroke-width="25"/>
</svg>
