<svg width="404" height="532" viewBox="0 0 404 532" fill="none" xmlns="http://www.w3.org/2000/svg">
    <path fill="white" stroke="black" stroke-width="20" d="M346 74H292.12C278.9 36.8 243.7 10 202 10C160.3 10 125.1 36.8 111.9 74H58C31.5 74 10 95.48 10 122V474C10 500.5 31.5 522 58 522H346C372.5 522 394 500.52 394 474V122C394 95.48 372.5 74 346 74ZM202 74C219.67 74 234 88.33 234 106C234 123.67 219.67 138 202 138C184.33 138 170 123.7 170 106C170 88.33 184.3 74 202 74ZM282 234H122C113.2 234 106 226.8 106 218C106 209.2 113.2 202 122 202H282C290.8 202 298 209.2 298 218C298 226.8 290.8 234 282 234Z"/>
</svg>