<svg width="128" height="128" viewBox="0 0 128 128" fill="none" xmlns="http://www.w3.org/2000/svg">
<path id="fill" fill="white" fill-rule="evenodd" clip-rule="evenodd" d="M28.5001 83C33.7236 87.766 35.5001 91 38.0001 94.5C58.0599 92.3786 69.5974 92.5833 90.5001 94.5C93.0001 91 94.7766 87.766 100 83C107.6 76.0654 112 70.5 112.5 63C113.417 41.2353 94.8449 32.6574 73.1035 40.7708C72.7988 40.8845 72.461 40.6876 72.4207 40.365L71.5703 33.562C71.533 33.2636 71.7657 33 72.0665 33H79.0001C79.2762 33 79.5001 32.7761 79.5001 32.5V20.5C79.5001 20.2239 79.2762 20 79.0001 20H71.0001C70.7239 20 70.5001 19.7761 70.5001 19.5L70.5001 11.5C70.5001 11.2239 70.2762 11 70.0001 11H58.5001C58.2239 11 58.0001 11.2239 58.0001 11.5V19.5C58.0001 19.7761 57.7762 20 57.5001 20H49.5001C49.2239 20 49.0001 20.2239 49.0001 20.5V32.5C49.0001 32.7761 49.2239 33 49.5001 33H56.4337C56.7344 33 56.9671 33.2636 56.9298 33.562L56.0795 40.365C56.0391 40.6876 55.7013 40.8845 55.3967 40.7708C33.6553 32.6574 15.0835 41.2353 16.0001 63C16.5001 70.5 20.8998 76.0654 28.5001 83ZM50.6888 78C52.5702 78 54.1446 76.5814 54.2888 74.7055C54.6343 70.2112 55.0448 62.4377 54.0001 60C52.5001 56.5 47.0001 55 43.0001 55.5C39.0001 56 35.5001 59.5 37.5001 65C38.149 66.7845 44.4072 72.9479 47.8792 76.7415C48.6028 77.5322 49.6169 78 50.6888 78V78ZM74.2113 74.7055C73.8659 70.2112 73.4554 62.4377 74.5001 60C76.0001 56.5 81.5001 55 85.5001 55.5C89.5001 56 93.0001 59.5 91.0001 65C90.3511 66.7845 84.093 72.9479 80.621 76.7415C79.8974 77.5322 78.8832 78 77.8114 78C75.9299 78 74.3555 76.5814 74.2113 74.7055Z"/>
<path id="fill" fill="white" d="M28.0152 103.94C28.0051 103.98 28.0001 104.021 28.0001 104.062V113.5C28.0001 113.776 28.2239 114 28.5001 114H100C100.276 114 100.5 113.776 100.5 113.5V104.062C100.5 104.021 100.495 103.98 100.485 103.94C99.475 99.97 96.9676 96.9875 90.5001 94.5C69.5974 92.5833 58.0599 92.3786 38.0001 94.5C31.5326 96.9875 29.0252 99.97 28.0152 103.94Z"/>
<path id="outline" stroke="white" stroke-width="4" d="M14.0018 63.0842L14.0029 63.1086L14.0045 63.133C14.5603 71.4694 19.505 77.5001 27.152 84.4774C31.1972 88.1683 33.0504 90.8479 34.9549 93.6233C32.6133 94.7288 30.7837 95.9728 29.3801 97.4186C27.6297 99.2219 26.6384 101.24 26.0769 103.447C26.025 103.651 26.0001 103.858 26.0001 104.062V113.5C26.0001 114.881 27.1194 116 28.5001 116H100C101.381 116 102.5 114.881 102.5 113.5V104.062C102.5 103.858 102.475 103.651 102.423 103.447C101.862 101.24 100.87 99.2219 99.12 97.4186C97.7165 95.9728 95.8869 94.7288 93.5453 93.6233C95.4498 90.8479 97.303 88.1683 101.348 84.4774C108.995 77.5001 113.94 71.4694 114.496 63.133L114.497 63.1086L114.498 63.0842C114.984 51.5587 110.268 43.183 102.237 38.915C94.7472 34.9345 84.7424 34.7232 74.1744 38.2697L73.7656 35H79.0001C80.3808 35 81.5001 33.8807 81.5001 32.5V20.5C81.5001 19.1193 80.3808 18 79.0001 18H72.5001L72.5001 11.5C72.5001 10.1193 71.3808 9 70.0001 9H58.5001C57.1194 9 56.0001 10.1193 56.0001 11.5V18H49.5001C48.1194 18 47.0001 19.1193 47.0001 20.5V32.5C47.0001 33.8807 48.1194 35 49.5001 35H54.7345L54.3258 38.2697C43.7578 34.7232 33.753 34.9345 26.263 38.915C18.2322 43.183 13.5165 51.5587 14.0018 63.0842Z"/>
<path id="contour" stroke="black" stroke-width="2" d="M38.0001 94.5C31.5326 96.9875 29.0252 99.97 28.0152 103.94C28.0051 103.98 28.0001 104.021 28.0001 104.062V113.5C28.0001 113.776 28.2239 114 28.5001 114H100C100.276 114 100.5 113.776 100.5 113.5V104.062C100.5 104.021 100.495 103.98 100.485 103.94C99.475 99.97 96.9676 96.9875 90.5001 94.5M38.0001 94.5C35.5001 91 33.7236 87.766 28.5001 83C20.8998 76.0654 16.5001 70.5 16.0001 63C15.0835 41.2353 33.6553 32.6574 55.3967 40.7708C55.7013 40.8845 56.0391 40.6876 56.0795 40.365L56.9298 33.562C56.9671 33.2636 56.7344 33 56.4337 33H49.5001C49.2239 33 49.0001 32.7761 49.0001 32.5V20.5C49.0001 20.2239 49.2239 20 49.5001 20H57.5001C57.7762 20 58.0001 19.7761 58.0001 19.5V11.5C58.0001 11.2239 58.2239 11 58.5001 11H70.0001C70.2762 11 70.5001 11.2239 70.5001 11.5L70.5001 19.5C70.5001 19.7761 70.7239 20 71.0001 20H79.0001C79.2762 20 79.5001 20.2239 79.5001 20.5V32.5C79.5001 32.7761 79.2762 33 79.0001 33H72.0665C71.7657 33 71.533 33.2636 71.5703 33.562L72.4207 40.365C72.461 40.6876 72.7988 40.8845 73.1035 40.7708C94.8449 32.6574 113.417 41.2353 112.5 63C112 70.5 107.6 76.0654 100 83C94.7766 87.766 93.0001 91 90.5001 94.5M38.0001 94.5C58.0599 92.3786 69.5974 92.5833 90.5001 94.5M54.0001 60C55.0448 62.4377 54.6343 70.2112 54.2888 74.7055C54.1446 76.5814 52.5702 78 50.6888 78V78C49.6169 78 48.6028 77.5322 47.8792 76.7415C44.4072 72.9479 38.149 66.7845 37.5001 65C35.5001 59.5 39.0001 56 43.0001 55.5C47.0001 55 52.5001 56.5 54.0001 60ZM74.5001 60C73.4554 62.4377 73.8659 70.2112 74.2113 74.7055C74.3555 76.5814 75.9299 78 77.8114 78C78.8832 78 79.8974 77.5322 80.621 76.7415C84.093 72.9479 90.3511 66.7845 91.0001 65C93.0001 59.5 89.5001 56 85.5001 55.5C81.5001 55 76.0001 56.5 74.5001 60Z"/>
</svg>
